<?xml version="1.0" encoding="UTF-8"?>
<svg version="1.1" xmlns="http://www.w3.org/2000/svg" width="72" height="72">
<path d="M0 0 C23.76 0 47.52 0 72 0 C72 23.76 72 47.52 72 72 C48.24 72 24.48 72 0 72 C0 48.24 0 24.48 0 0 Z " fill="#5899B3" transform="translate(0,0)"/>
<path d="M0 0 C1.32 0 2.64 0 4 0 C4 0.66 4 1.32 4 2 C4.99 2 5.98 2 7 2 C7 2.66 7 3.32 7 4 C7.66 4 8.32 4 9 4 C9 4.66 9 5.32 9 6 C9.66 6 10.32 6 11 6 C11 8.31 11 10.62 11 13 C10.01 13 9.02 13 8 13 C7.34 14.65 6.68 16.3 6 18 C6.99 18 7.98 18 9 18 C9 17.34 9 16.68 9 16 C9.66 16 10.32 16 11 16 C11 15.34 11 14.68 11 14 C14.02419525 14.58803797 17.01758453 15.22678118 20 16 C20 16.66 20 17.32 20 18 C21.32 18 22.64 18 24 18 C24 18.66 24 19.32 24 20 C23.34 20 22.68 20 22 20 C22 20.66 22 21.32 22 22 C22.99 22 23.98 22 25 22 C25 21.34 25 20.68 25 20 C25.66 20 26.32 20 27 20 C27 21.32 27 22.64 27 24 C27.66 24 28.32 24 29 24 C29 20.37 29 16.74 29 13 C27.68 13 26.36 13 25 13 C25 12.34 25 11.68 25 11 C23.35 11 21.7 11 20 11 C20 10.34 20 9.68 20 9 C22.31 9 24.62 9 27 9 C27 9.66 27 10.32 27 11 C28.32 11 29.64 11 31 11 C31 11.66 31 12.32 31 13 C32.65 13 34.3 13 36 13 C36 13.66 36 14.32 36 15 C36.66 15 37.32 15 38 15 C38 16.65 38 18.3 38 20 C40.31 20 42.62 20 45 20 C45 20.66 45 21.32 45 22 C45.66 22 46.32 22 47 22 C47 23.65 47 25.3 47 27 C46.34 27 45.68 27 45 27 C45 27.66 45 28.32 45 29 C44.01 29 43.02 29 42 29 C42 27.02 42 25.04 42 23 C40.68 23 39.36 23 38 23 C38 25.64 38 28.28 38 31 C39.32 31.33 40.64 31.66 42 32 C40.68 32 39.36 32 38 32 C38 33.32 38 34.64 38 36 C37.34 36 36.68 36 36 36 C36 33.69 36 31.38 36 29 C35.01 29 34.02 29 33 29 C33 31.97 33 34.94 33 38 C32.34 38 31.68 38 31 38 C31 38.66 31 39.32 31 40 C30.34 40 29.68 40 29 40 C29 35.71 29 31.42 29 27 C27.68 27 26.36 27 25 27 C25 28.98 25 30.96 25 33 C23.35 33 21.7 33 20 33 C20 31.02 20 29.04 20 27 C19.34 27 18.68 27 18 27 C18 28.32 18 29.64 18 31 C17.34 31 16.68 31 16 31 C16 29.02 16 27.04 16 25 C14.35 25 12.7 25 11 25 C11 24.34 11 23.68 11 23 C10.01 23.33 9.02 23.66 8 24 C8.33 24.66 8.66 25.32 9 26 C8.34 26.33 7.68 26.66 7 27 C6.34786708 29.02463255 6.34786708 29.02463255 6 31 C6.99 31 7.98 31 9 31 C9 30.34 9 29.68 9 29 C10.32 29 11.64 29 13 29 C13 31.31 13 33.62 13 36 C12.34 36 11.68 36 11 36 C10.34 38.64 9.68 41.28 9 44 C8.34 44 7.68 44 7 44 C7 43.01 7 42.02 7 41 C5.35 40.67 3.7 40.34 2 40 C2 37.03 2 34.06 2 31 C1.34 31 0.68 31 0 31 C0 30.34 0 29.68 0 29 C0.66 29 1.32 29 2 29 C2 26.69 2 24.38 2 22 C0.35 22 -1.3 22 -3 22 C-3 19.69 -3 17.38 -3 15 C-1.35 15 0.3 15 2 15 C2 14.34 2 13.68 2 13 C1.34 13 0.68 13 0 13 C0 12.34 0 11.68 0 11 C-1.65 11 -3.3 11 -5 11 C-5 10.34 -5 9.68 -5 9 C-5.66 9 -6.32 9 -7 9 C-7 6.69 -7 4.38 -7 2 C-4.69 2 -2.38 2 0 2 C0 1.34 0 0.68 0 0 Z " fill="#F6DE73" transform="translate(16,7)"/>
<path d="M0 0 C2.97 0 5.94 0 9 0 C9 2.31 9 4.62 9 7 C8.34 7 7.68 7 7 7 C7 7.66 7 8.32 7 9 C7.66 9 8.32 9 9 9 C9 11.97 9 14.94 9 18 C10.65 18.33 12.3 18.66 14 19 C14 19.99 14 20.98 14 22 C14.66 22 15.32 22 16 22 C16.66 19.36 17.32 16.72 18 14 C18.66 14 19.32 14 20 14 C20 11.69 20 9.38 20 7 C18.68 7 17.36 7 16 7 C16 7.66 16 8.32 16 9 C15.01 9 14.02 9 13 9 C13.165 8.236875 13.33 7.47375 13.5 6.6875 C14.09145396 3.96403764 14.09145396 3.96403764 14 1 C15.32 1 16.64 1 18 1 C18 1.66 18 2.32 18 3 C19.65 3 21.3 3 23 3 C23 4.98 23 6.96 23 9 C23.66 9 24.32 9 25 9 C25 7.68 25 6.36 25 5 C25.66 5 26.32 5 27 5 C27 6.98 27 8.96 27 11 C28.65 11 30.3 11 32 11 C32 9.02 32 7.04 32 5 C33.32 5 34.64 5 36 5 C36 9.29 36 13.58 36 18 C36.66 18 37.32 18 38 18 C38 17.34 38 16.68 38 16 C38.66 16 39.32 16 40 16 C40 13.03 40 10.06 40 7 C40.99 7 41.98 7 43 7 C43 9.31 43 11.62 43 14 C43.66 14 44.32 14 45 14 C45 12.68 45 11.36 45 10 C46.32 10 47.64 10 49 10 C49 11.32 49 12.64 49 14 C48.34 14 47.68 14 47 14 C47 14.66 47 15.32 47 16 C46.34 16 45.68 16 45 16 C45 16.66 45 17.32 45 18 C43.35 18 41.7 18 40 18 C39.67 19.32 39.34 20.64 39 22 C38.01 21.67 37.02 21.34 36 21 C36 22.32 36 23.64 36 25 C34.68 25 33.36 25 32 25 C32 24.34 32 23.68 32 23 C31.01 23 30.02 23 29 23 C29 23.66 29 24.32 29 25 C28.34 25 27.68 25 27 25 C27 25.66 27 26.32 27 27 C26.34 27 25.68 27 25 27 C25 26.34 25 25.68 25 25 C22.69 25 20.38 25 18 25 C18 24.34 18 23.68 18 23 C16.35 23 14.7 23 13 23 C13 22.34 13 21.68 13 21 C11.02 21 9.04 21 7 21 C7 20.01 7 19.02 7 18 C6.01 18 5.02 18 4 18 C4 13.05 4 8.1 4 3 C3.34 3 2.68 3 2 3 C2 3.66 2 4.32 2 5 C1.34 5 0.68 5 0 5 C0 3.35 0 1.7 0 0 Z " fill="#A9943E" transform="translate(9,29)"/>
<path d="M0 0 C3.63 0 7.26 0 11 0 C11 0.66 11 1.32 11 2 C12.65 2 14.3 2 16 2 C16 2.99 16 3.98 16 5 C18.31 5 20.62 5 23 5 C23 8.63 23 12.26 23 16 C21.35 16 19.7 16 18 16 C18 14.35 18 12.7 18 11 C17.34 11 16.68 11 16 11 C16 10.34 16 9.68 16 9 C14.35 9 12.7 9 11 9 C11 8.34 11 7.68 11 7 C9.68 7 8.36 7 7 7 C7 6.34 7 5.68 7 5 C4.69 5 2.38 5 0 5 C0 5.66 0 6.32 0 7 C1.65 7 3.3 7 5 7 C5 7.66 5 8.32 5 9 C6.32 9 7.64 9 9 9 C9 12.63 9 16.26 9 20 C8.34 20 7.68 20 7 20 C7 18.68 7 17.36 7 16 C6.34 16 5.68 16 5 16 C5 16.66 5 17.32 5 18 C4.01 18 3.02 18 2 18 C2 17.34 2 16.68 2 16 C2.66 16 3.32 16 4 16 C4 15.34 4 14.68 4 14 C2.68 14 1.36 14 0 14 C0 13.34 0 12.68 0 12 C-0.7425 11.855625 -1.485 11.71125 -2.25 11.5625 C-4.52027739 11.09812508 -6.75759479 10.58136431 -9 10 C-9 10.66 -9 11.32 -9 12 C-9.66 12 -10.32 12 -11 12 C-11 12.66 -11 13.32 -11 14 C-11.99 14 -12.98 14 -14 14 C-13.34 12.35 -12.68 10.7 -12 9 C-11.01 9 -10.02 9 -9 9 C-9 7.68 -9 6.36 -9 5 C-7.35 5 -5.7 5 -4 5 C-4 4.34 -4 3.68 -4 3 C-2.68 3 -1.36 3 0 3 C0 2.01 0 1.02 0 0 Z " fill="#AC8C43" transform="translate(36,11)"/>
<path d="M0 0 C2.31 0 4.62 0 7 0 C7 0.66 7 1.32 7 2 C8.32 2 9.64 2 11 2 C11 2.66 11 3.32 11 4 C12.65 4 14.3 4 16 4 C16 4.66 16 5.32 16 6 C16.66 6 17.32 6 18 6 C18 7.65 18 9.3 18 11 C20.31 11 22.62 11 25 11 C25 11.66 25 12.32 25 13 C25.66 13 26.32 13 27 13 C27 14.65 27 16.3 27 18 C26.34 18 25.68 18 25 18 C25 18.66 25 19.32 25 20 C24.01 20 23.02 20 22 20 C22 18.02 22 16.04 22 14 C20.68 14 19.36 14 18 14 C18 16.64 18 19.28 18 22 C19.32 22.33 20.64 22.66 22 23 C20.68 23 19.36 23 18 23 C18 24.32 18 25.64 18 27 C17.34 27 16.68 27 16 27 C16 24.69 16 22.38 16 20 C15.01 20 14.02 20 13 20 C13 22.97 13 25.94 13 29 C12.34 29 11.68 29 11 29 C11 29.66 11 30.32 11 31 C10.34 31 9.68 31 9 31 C9 26.71 9 22.42 9 18 C9.66 18 10.32 18 11 18 C11 17.01 11 16.02 11 15 C10.34 15 9.68 15 9 15 C9 11.37 9 7.74 9 4 C7.68 4 6.36 4 5 4 C5 3.34 5 2.68 5 2 C3.35 2 1.7 2 0 2 C0 1.34 0 0.68 0 0 Z " fill="#A09360" transform="translate(36,16)"/>
<path d="M0 0 C2.97 0 5.94 0 9 0 C9 2.31 9 4.62 9 7 C8.34 7 7.68 7 7 7 C7 7.66 7 8.32 7 9 C7.66 9 8.32 9 9 9 C9 11.97 9 14.94 9 18 C10.65 18.33 12.3 18.66 14 19 C14 19.99 14 20.98 14 22 C14.66 22 15.32 22 16 22 C16.66 19.36 17.32 16.72 18 14 C18.66 14 19.32 14 20 14 C20.33 13.01 20.66 12.02 21 11 C22.32 11 23.64 11 25 11 C25 14.96 25 18.92 25 23 C21.04 23 17.08 23 13 23 C13 22.34 13 21.68 13 21 C11.02 21 9.04 21 7 21 C7 20.01 7 19.02 7 18 C6.01 18 5.02 18 4 18 C4 13.05 4 8.1 4 3 C3.34 3 2.68 3 2 3 C2 3.66 2 4.32 2 5 C1.34 5 0.68 5 0 5 C0 3.35 0 1.7 0 0 Z " fill="#816E47" transform="translate(9,29)"/>
<path d="M0 0 C1.32 0 2.64 0 4 0 C4 0.66 4 1.32 4 2 C5.32 2 6.64 2 8 2 C8 2.66 8 3.32 8 4 C9.65 4 11.3 4 13 4 C12.01 4.66 11.02 5.32 10 6 C10.33 6.66 10.66 7.32 11 8 C10.01 8.495 10.01 8.495 9 9 C8.34786708 11.02463255 8.34786708 11.02463255 8 13 C8.99 13 9.98 13 11 13 C11 12.34 11 11.68 11 11 C12.32 11 13.64 11 15 11 C15 13.31 15 15.62 15 18 C14.34 18 13.68 18 13 18 C12.34 20.64 11.68 23.28 11 26 C10.34 26 9.68 26 9 26 C9 25.01 9 24.02 9 23 C7.35 22.67 5.7 22.34 4 22 C4 19.03 4 16.06 4 13 C3.34 13 2.68 13 2 13 C2 12.34 2 11.68 2 11 C2.66 11 3.32 11 4 11 C4 8.69 4 6.38 4 4 C2.68 4 1.36 4 0 4 C0 2.68 0 1.36 0 0 Z " fill="#D9C459" transform="translate(14,25)"/>
<path d="M0 0 C1.32 0 2.64 0 4 0 C4 0.66 4 1.32 4 2 C4.99 2 5.98 2 7 2 C7 2.66 7 3.32 7 4 C7.66 4 8.32 4 9 4 C9 4.66 9 5.32 9 6 C9.66 6 10.32 6 11 6 C11 8.31 11 10.62 11 13 C10.34 13 9.68 13 9 13 C9 12.34 9 11.68 9 11 C8.01 11 7.02 11 6 11 C6 11.66 6 12.32 6 13 C4.02 13 2.04 13 0 13 C0 12.34 0 11.68 0 11 C-1.65 11 -3.3 11 -5 11 C-5 10.34 -5 9.68 -5 9 C-5.66 9 -6.32 9 -7 9 C-7 6.69 -7 4.38 -7 2 C-4.69 2 -2.38 2 0 2 C0 1.34 0 0.68 0 0 Z " fill="#BDD5DD" transform="translate(16,7)"/>
<path d="M0 0 C3.63 0 7.26 0 11 0 C11 0.66 11 1.32 11 2 C12.65 2 14.3 2 16 2 C16 2.99 16 3.98 16 5 C18.31 5 20.62 5 23 5 C23 8.63 23 12.26 23 16 C21.35 16 19.7 16 18 16 C18 14.35 18 12.7 18 11 C17.34 11 16.68 11 16 11 C16 10.34 16 9.68 16 9 C14.35 9 12.7 9 11 9 C11 8.34 11 7.68 11 7 C9.68 7 8.36 7 7 7 C7 6.01 7 5.02 7 4 C4.69 4 2.38 4 0 4 C0 2.68 0 1.36 0 0 Z " fill="#73532F" transform="translate(36,11)"/>
<path d="M0 0 C0.66 0 1.32 0 2 0 C2 4.29 2 8.58 2 13 C2.66 13 3.32 13 4 13 C4 12.34 4 11.68 4 11 C4.66 11 5.32 11 6 11 C6 8.03 6 5.06 6 2 C6.99 2 7.98 2 9 2 C9 4.31 9 6.62 9 9 C9.66 9 10.32 9 11 9 C11 7.68 11 6.36 11 5 C12.32 5 13.64 5 15 5 C15 6.32 15 7.64 15 9 C14.34 9 13.68 9 13 9 C13 9.66 13 10.32 13 11 C12.34 11 11.68 11 11 11 C11 11.66 11 12.32 11 13 C9.35 13 7.7 13 6 13 C5.67 14.32 5.34 15.64 5 17 C4.01 16.67 3.02 16.34 2 16 C2 17.32 2 18.64 2 20 C0.68 20 -0.64 20 -2 20 C-2 19.34 -2 18.68 -2 18 C-1.34 18 -0.68 18 0 18 C0 12.06 0 6.12 0 0 Z " fill="#4E3916" transform="translate(43,34)"/>
<path d="M0 0 C1.32 0 2.64 0 4 0 C4 0.66 4 1.32 4 2 C5.65 2 7.3 2 9 2 C9 3.98 9 5.96 9 8 C9.66 8 10.32 8 11 8 C11 6.68 11 5.36 11 4 C11.66 4 12.32 4 13 4 C13 6.31 13 8.62 13 11 C14.32 11 15.64 11 17 11 C17 12.32 17 13.64 17 15 C15.02 15 13.04 15 11 15 C11 13.35 11 11.7 11 10 C9.35 10.33 7.7 10.66 6 11 C6 9.35 6 7.7 6 6 C4.68 6 3.36 6 2 6 C2 6.66 2 7.32 2 8 C1.01 8 0.02 8 -1 8 C-0.835 7.236875 -0.67 6.47375 -0.5 5.6875 C0.09145396 2.96403764 0.09145396 2.96403764 0 0 Z " fill="#9D7F37" transform="translate(23,30)"/>
<path d="M0 0 C2.31 0 4.62 0 7 0 C7 0.66 7 1.32 7 2 C8.32 2 9.64 2 11 2 C11 2.66 11 3.32 11 4 C12.65 4 14.3 4 16 4 C16 4.66 16 5.32 16 6 C16.66 6 17.32 6 18 6 C18 7.65 18 9.3 18 11 C16.68 11 15.36 11 14 11 C14 11.66 14 12.32 14 13 C14.66 13 15.32 13 16 13 C16 13.66 16 14.32 16 15 C11.25 14.125 11.25 14.125 9 13 C9 10.03 9 7.06 9 4 C7.68 4 6.36 4 5 4 C5 3.34 5 2.68 5 2 C3.35 2 1.7 2 0 2 C0 1.34 0 0.68 0 0 Z " fill="#BBA54D" transform="translate(36,16)"/>
<path d="M0 0 C1.32 0 2.64 0 4 0 C4 3.96 4 7.92 4 12 C1.69 12 -0.62 12 -3 12 C-3 9.03 -3 6.06 -3 3 C-2.34 3 -1.68 3 -1 3 C-0.67 2.01 -0.34 1.02 0 0 Z " fill="#201C2A" transform="translate(30,40)"/>
<path d="M0 0 C1.72880982 -0.05449838 3.45812712 -0.09301688 5.1875 -0.125 C6.15042969 -0.14820312 7.11335938 -0.17140625 8.10546875 -0.1953125 C11.12812778 0.0086456 13.26769985 0.73125368 16 2 C15.01 2.495 15.01 2.495 14 3 C14 4.98 14 6.96 14 9 C12.35 9 10.7 9 9 9 C9 7.02 9 5.04 9 3 C8.34 3 7.68 3 7 3 C7 4.32 7 5.64 7 7 C6.34 7 5.68 7 5 7 C5 5.02 5 3.04 5 1 C3.35 1 1.7 1 0 1 C0 0.67 0 0.34 0 0 Z " fill="#D3BC56" transform="translate(27,31)"/>
<path d="M0 0 C0.99 0 1.98 0 3 0 C2.01 2.97 1.02 5.94 0 9 C-1.32 9 -2.64 9 -4 9 C-4 8.34 -4 7.68 -4 7 C-5.32 7 -6.64 7 -8 7 C-8.33 8.32 -8.66 9.64 -9 11 C-9 8.69 -9 6.38 -9 4 C-7.35 4 -5.7 4 -4 4 C-4 3.34 -4 2.68 -4 2 C-2.68 2 -1.36 2 0 2 C0 1.34 0 0.68 0 0 Z " fill="#DED57E" transform="translate(22,18)"/>
<path d="M0 0 C2.475 0.495 2.475 0.495 5 1 C5 1.66 5 2.32 5 3 C6.32 3 7.64 3 9 3 C9 3.66 9 4.32 9 5 C7.68 5 6.36 5 5 5 C5 5.66 5 6.32 5 7 C5.66 7 6.32 7 7 7 C7 7.66 7 8.32 7 9 C2.25 8.125 2.25 8.125 0 7 C0 4.69 0 2.38 0 0 Z " fill="#DAD1A6" transform="translate(45,22)"/>
<path d="M0 0 C2.31 0 4.62 0 7 0 C7 0.66 7 1.32 7 2 C5.35 2 3.7 2 2 2 C2 2.99 2 3.98 2 5 C2.66 5 3.32 5 4 5 C4 5.66 4 6.32 4 7 C5.65 7 7.3 7 9 7 C9 7.66 9 8.32 9 9 C9.66 9 10.32 9 11 9 C11 9.66 11 10.32 11 11 C9.68 11 8.36 11 7 11 C7 10.34 7 9.68 7 9 C5.35 9 3.7 9 2 9 C2 8.34 2 7.68 2 7 C1.34 7 0.68 7 0 7 C0 4.69 0 2.38 0 0 Z " fill="#EEF4F6" transform="translate(9,9)"/>
<path d="M0 0 C2.64 0 5.28 0 8 0 C8 0.66 8 1.32 8 2 C8.99 2 9.98 2 11 2 C11 2.99 11 3.98 11 5 C10.34 5 9.68 5 9 5 C9 6.32 9 7.64 9 9 C8.01 9 7.02 9 6 9 C6 8.34 6 7.68 6 7 C6.66 7 7.32 7 8 7 C8 6.34 8 5.68 8 5 C6.68 5 5.36 5 4 5 C4 4.34 4 3.68 4 3 C2.68 3 1.36 3 0 3 C0 2.01 0 1.02 0 0 Z " fill="#AF8E42" transform="translate(32,20)"/>
<path d="M0 0 C0.66 0 1.32 0 2 0 C2 6.6 2 13.2 2 20 C0.68 20 -0.64 20 -2 20 C-2 19.34 -2 18.68 -2 18 C-1.34 18 -0.68 18 0 18 C0 12.06 0 6.12 0 0 Z " fill="#362510" transform="translate(43,34)"/>
<path d="M0 0 C0.66 0 1.32 0 2 0 C2 0.66 2 1.32 2 2 C2.66 2 3.32 2 4 2 C4 4.97 4 7.94 4 11 C3.34 11 2.68 11 2 11 C2 11.66 2 12.32 2 13 C1.34 13 0.68 13 0 13 C0 8.71 0 4.42 0 0 Z " fill="#A79340" transform="translate(45,34)"/>
<path d="M0 0 C2.31 0 4.62 0 7 0 C7 0.66 7 1.32 7 2 C7.66 2 8.32 2 9 2 C9 3.65 9 5.3 9 7 C8.34 7 7.68 7 7 7 C7 7.66 7 8.32 7 9 C6.34 9 5.68 9 5 9 C5 6.69 5 4.38 5 2 C3.35 2 1.7 2 0 2 C0 1.34 0 0.68 0 0 Z " fill="#D8E5E9" transform="translate(54,27)"/>
<path d="M0 0 C1.32 0 2.64 0 4 0 C4 0.66 4 1.32 4 2 C5.32 2 6.64 2 8 2 C8 2.66 8 3.32 8 4 C9.65 4 11.3 4 13 4 C13 4.33 13 4.66 13 5 C11.35 5 9.7 5 8 5 C7.34 6.32 6.68 7.64 6 9 C6 7.35 6 5.7 6 4 C4.02 4 2.04 4 0 4 C0 2.68 0 1.36 0 0 Z " fill="#DEC846" transform="translate(14,25)"/>
<path d="M0 0 C0.66 0 1.32 0 2 0 C2 0.66 2 1.32 2 2 C2.66 2 3.32 2 4 2 C4 4.31 4 6.62 4 9 C2.68 9 1.36 9 0 9 C0 6.03 0 3.06 0 0 Z " fill="#1C1D30" transform="translate(14,36)"/>
<path d="M0 0 C0.66 0 1.32 0 2 0 C2 1.32 2 2.64 2 4 C3.32 4 4.64 4 6 4 C6 4.99 6 5.98 6 7 C2.97580475 6.41196203 -0.01758453 5.77321882 -3 5 C-3 4.01 -3 3.02 -3 2 C-2.01 2 -1.02 2 0 2 C0 1.34 0 0.68 0 0 Z " fill="#DCD2AE" transform="translate(41,27)"/>
<path d="M0 0 C2.475 0.495 2.475 0.495 5 1 C5 1.66 5 2.32 5 3 C6.32 3 7.64 3 9 3 C9 3.66 9 4.32 9 5 C8.34 5 7.68 5 7 5 C7 6.32 7 7.64 7 9 C6.34 9 5.68 9 5 9 C5 7.68 5 6.36 5 5 C4.01 5 3.02 5 2 5 C1.34 3.35 0.68 1.7 0 0 Z " fill="#F1D75F" transform="translate(31,22)"/>
<path d="M0 0 C1.98 0 3.96 0 6 0 C6 2.31 6 4.62 6 7 C4.68 7 3.36 7 2 7 C2 5.35 2 3.7 2 2 C1.34 2 0.68 2 0 2 C0 1.34 0 0.68 0 0 Z " fill="#322310" transform="translate(52,20)"/>
<path d="M0 0 C0.33 0 0.66 0 1 0 C1 5.94 1 11.88 1 18 C-0.65 18 -2.3 18 -4 18 C-4 17.01 -4 16.02 -4 15 C-2.68 15 -1.36 15 0 15 C0 10.05 0 5.1 0 0 Z " fill="#856929" transform="translate(42,34)"/>
<path d="M0 0 C2.97 0 5.94 0 9 0 C9 1.65 9 3.3 9 5 C8.34 5 7.68 5 7 5 C7 4.01 7 3.02 7 2 C5.35 2 3.7 2 2 2 C2 2.99 2 3.98 2 5 C1.34 5 0.68 5 0 5 C0 3.35 0 1.7 0 0 Z " fill="#1E2119" transform="translate(9,29)"/>
<path d="M0 0 C0.66 0 1.32 0 2 0 C2 1.98 2 3.96 2 6 C-0.31 5.67 -2.62 5.34 -5 5 C-5 4.01 -5 3.02 -5 2 C-3.35 2 -1.7 2 0 2 C0 1.34 0 0.68 0 0 Z " fill="#89B7C8" transform="translate(16,9)"/>
<path d="M0 0 C2.97 0 5.94 0 9 0 C9 1.32 9 2.64 9 4 C8.34 4 7.68 4 7 4 C7 3.34 7 2.68 7 2 C5.68 2 4.36 2 3 2 C3 2.66 3 3.32 3 4 C2.01 4 1.02 4 0 4 C0 2.68 0 1.36 0 0 Z " fill="#2B2612" transform="translate(22,34)"/>
<path d="M0 0 C3.63 0 7.26 0 11 0 C11 0.66 11 1.32 11 2 C10.34 2 9.68 2 9 2 C9 2.66 9 3.32 9 4 C8.34 4 7.68 4 7 4 C7 3.34 7 2.68 7 2 C4.69 2 2.38 2 0 2 C0 1.34 0 0.68 0 0 Z " fill="#805325" transform="translate(27,52)"/>
<path d="M0 0 C0.66 0 1.32 0 2 0 C2 1.32 2 2.64 2 4 C2.99 4 3.98 4 5 4 C5.33 3.34 5.66 2.68 6 2 C5.67 3.98 5.34 5.96 5 8 C4.34 8 3.68 8 3 8 C3 7.01 3 6.02 3 5 C1.35 4.67 -0.3 4.34 -2 4 C-2 3.34 -2 2.68 -2 2 C-1.34 2 -0.68 2 0 2 C0 1.34 0 0.68 0 0 Z " fill="#D09E33" transform="translate(20,43)"/>
<path d="M0 0 C2.97 0.495 2.97 0.495 6 1 C6 2.32 6 3.64 6 5 C4.02 5 2.04 5 0 5 C0 3.35 0 1.7 0 0 Z " fill="#926920" transform="translate(34,40)"/>
<path d="M0 0 C1.32 0 2.64 0 4 0 C4 3.3 4 6.6 4 10 C3.34 10 2.68 10 2 10 C2 8.68 2 7.36 2 6 C1.34 6 0.68 6 0 6 C0 5.34 0 4.68 0 4 C0.66 4 1.32 4 2 4 C2 3.01 2 2.02 2 1 C1.34 0.67 0.68 0.34 0 0 Z " fill="#5F421F" transform="translate(41,21)"/>
<path d="M0 0 C1.32 0 2.64 0 4 0 C4 0.66 4 1.32 4 2 C4.66 2 5.32 2 6 2 C6 2.66 6 3.32 6 4 C5.34 4 4.68 4 4 4 C4 4.99 4 5.98 4 7 C4.66 7.33 5.32 7.66 6 8 C4.68 8 3.36 8 2 8 C2 6.02 2 4.04 2 2 C1.34 2 0.68 2 0 2 C0 1.34 0 0.68 0 0 Z " fill="#F4F8F9" transform="translate(16,7)"/>
<path d="M0 0 C1.32 0 2.64 0 4 0 C4 1.98 4 3.96 4 6 C2.68 6 1.36 6 0 6 C0 4.02 0 2.04 0 0 Z " fill="#322515" transform="translate(54,30)"/>
<path d="M0 0 C1.32 0 2.64 0 4 0 C4 0.66 4 1.32 4 2 C5.65 2 7.3 2 9 2 C9 2.66 9 3.32 9 4 C6.03 4 3.06 4 0 4 C0 2.66666667 0 1.33333333 0 0 Z " fill="#BAA33A" transform="translate(23,30)"/>
<path d="M0 0 C1.32 0 2.64 0 4 0 C4 0.66 4 1.32 4 2 C5.65 2 7.3 2 9 2 C9 4.31 9 6.62 9 9 C8.67 9 8.34 9 8 9 C8 7.02 8 5.04 8 3 C6.02 3.33 4.04 3.66 2 4 C2 3.34 2 2.68 2 2 C1.34 2 0.68 2 0 2 C0 1.34 0 0.68 0 0 Z " fill="#807956" transform="translate(50,27)"/>
<path d="M0 0 C0.99 0 1.98 0 3 0 C3 3.63 3 7.26 3 11 C2.67 11 2.34 11 2 11 C2 8.69 2 6.38 2 4 C0.68 4 -0.64 4 -2 4 C-2 3.34 -2 2.68 -2 2 C-1.34 2 -0.68 2 0 2 C0 1.34 0 0.68 0 0 Z " fill="#585040" transform="translate(56,16)"/>
<path d="M0 0 C3.63 0.33 7.26 0.66 11 1 C11 1.33 11 1.66 11 2 C8.69 2 6.38 2 4 2 C4 2.66 4 3.32 4 4 C2.68 4 1.36 4 0 4 C0 2.68 0 1.36 0 0 Z " fill="#977434" transform="translate(32,14)"/>
<path d="M0 0 C2.31 0 4.62 0 7 0 C7 0.66 7 1.32 7 2 C7.66 2 8.32 2 9 2 C9 2.66 9 3.32 9 4 C7.68 4 6.36 4 5 4 C5 3.34 5 2.68 5 2 C3.35 2 1.7 2 0 2 C0 1.34 0 0.68 0 0 Z " fill="#EAD269" transform="translate(36,16)"/>
<path d="M0 0 C0.66 0 1.32 0 2 0 C2 1.32 2 2.64 2 4 C1.01 4 0.02 4 -1 4 C-1 4.66 -1 5.32 -1 6 C-1.66 6 -2.32 6 -3 6 C-3 5.34 -3 4.68 -3 4 C-3.66 4 -4.32 4 -5 4 C-5 3.34 -5 2.68 -5 2 C-3.35 2 -1.7 2 0 2 C0 1.34 0 0.68 0 0 Z " fill="#6CA4B9" transform="translate(23,14)"/>
<path d="M0 0 C1.32 0 2.64 0 4 0 C4 1.32 4 2.64 4 4 C3.34 4 2.68 4 2 4 C2 4.66 2 5.32 2 6 C1.34 6 0.68 6 0 6 C0 4.02 0 2.04 0 0 Z " fill="#2F2313" transform="translate(54,39)"/>
<path d="M0 0 C0.66 0 1.32 0 2 0 C2 0.66 2 1.32 2 2 C3.32 2.33 4.64 2.66 6 3 C4.68 3 3.36 3 2 3 C2 4.32 2 5.64 2 7 C1.34 7 0.68 7 0 7 C0 4.69 0 2.38 0 0 Z " fill="#978646" transform="translate(52,36)"/>
<path d="M0 0 C0.66 0 1.32 0 2 0 C2 1.32 2 2.64 2 4 C-0.31 4 -2.62 4 -5 4 C-5 3.34 -5 2.68 -5 2 C-3.35 2 -1.7 2 0 2 C0 1.34 0 0.68 0 0 Z " fill="#EFECE5" transform="translate(52,32)"/>
<path d="M0 0 C0.66 0 1.32 0 2 0 C2 1.98 2 3.96 2 6 C0.68 5.67 -0.64 5.34 -2 5 C-2 4.01 -2 3.02 -2 2 C-1.34 2 -0.68 2 0 2 C0 1.34 0 0.68 0 0 Z " fill="#69491E" transform="translate(47,45)"/>
</svg>
