<?xml version="1.0" encoding="UTF-8"?>
<svg version="1.1" xmlns="http://www.w3.org/2000/svg" width="114" height="114">
<path d="M0 0 C37.62 0 75.24 0 114 0 C114 37.62 114 75.24 114 114 C76.38 114 38.76 114 0 114 C0 76.38 0 38.76 0 0 Z " fill="#5899B3" transform="translate(0,0)"/>
<path d="M0 0 C2.31 0 4.62 0 7 0 C7 0.99 7 1.98 7 3 C7.99 3 8.98 3 10 3 C10 4.32 10 5.64 10 7 C9.01 7 8.02 7 7 7 C7 8.32 7 9.64 7 11 C7.99 11 8.98 11 10 11 C10 11.99 10 12.98 10 14 C8.02 14 6.04 14 4 14 C4 14.99 4 15.98 4 17 C4.99 17 5.98 17 7 17 C7 18.32 7 19.64 7 21 C8.32 21 9.64 21 11 21 C11 19.68 11 18.36 11 17 C11.99 17 12.98 17 14 17 C14 15.02 14 13.04 14 11 C13.01 11 12.02 11 11 11 C11 9.68 11 8.36 11 7 C11.99 7 12.98 7 14 7 C14 7.99 14 8.98 14 10 C15.32 10 16.64 10 18 10 C18 13.63 18 17.26 18 21 C20.31 21 22.62 21 25 21 C25 21.99 25 22.98 25 24 C27.31 24 29.62 24 32 24 C32 23.01 32 22.02 32 21 C34.31 21 36.62 21 39 21 C39 19.68 39 18.36 39 17 C36.69 17 34.38 17 32 17 C32 16.01 32 15.02 32 14 C35.63 14 39.26 14 43 14 C43 14.99 43 15.98 43 17 C45.31 17 47.62 17 50 17 C50 18.32 50 19.64 50 21 C52.31 21 54.62 21 57 21 C57 22.32 57 23.64 57 25 C56.01 25 55.02 25 54 25 C54 25.99 54 26.98 54 28 C56.31 28 58.62 28 61 28 C61 29.32 61 30.64 61 32 C64.3 32 67.6 32 71 32 C71 32.99 71 33.98 71 35 C72.32 35 73.64 35 75 35 C75 37.64 75 40.28 75 43 C73.68 43 72.36 43 71 43 C71 43.99 71 44.98 71 46 C70.01 46 69.02 46 68 46 C68 44.68 68 43.36 68 42 C68.99 42 69.98 42 71 42 C71 41.01 71 40.02 71 39 C70.01 39 69.02 39 68 39 C68 37.68 68 36.36 68 35 C65.36 35 62.72 35 60 35 C60 34.01 60 33.02 60 32 C58.02 32 56.04 32 54 32 C54 32.99 54 33.98 54 35 C54.99 35 55.98 35 57 35 C57 36.32 57 37.64 57 39 C55.35 39 53.7 39 52 39 C52 38.34 52 37.68 52 37 C51.34 37 50.68 37 50 37 C50 38.65 50 40.3 50 42 C46.37 42 42.74 42 39 42 C39 45.63 39 49.26 39 53 C35.37 53 31.74 53 28 53 C28 52.01 28 51.02 28 50 C27.01 50 26.02 50 25 50 C25 47.36 25 44.72 25 42 C20.05 42 15.1 42 10 42 C10 44.64 10 47.28 10 50 C11.32 50 12.64 50 14 50 C14 48.68 14 47.36 14 46 C16.31 46 18.62 46 21 46 C21 49.63 21 53.26 21 57 C19.68 57 18.36 57 17 57 C17 60.3 17 63.6 17 67 C16.01 67 15.02 67 14 67 C14 68.32 14 69.64 14 71 C13.01 71 12.02 71 11 71 C11 69.68 11 68.36 11 67 C8.69 67 6.38 67 4 67 C2.81318274 63.43954823 2.90310168 60.56191663 2.9375 56.8125 C2.94652344 55.54019531 2.95554687 54.26789063 2.96484375 52.95703125 C2.97644531 51.98121094 2.98804688 51.00539062 3 50 C2.01 50 1.02 50 0 50 C0 48.68 0 47.36 0 46 C0.99 46 1.98 46 3 46 C3.33 42.37 3.66 38.74 4 35 C1.36 35 -1.28 35 -4 35 C-4 31.37 -4 27.74 -4 24 C-1.69 24 0.62 24 3 24 C3 23.01 3 22.02 3 21 C2.01 21 1.02 21 0 21 C0 20.01 0 19.02 0 18 C-2.31 18 -4.62 18 -7 18 C-7 16.68 -7 15.36 -7 14 C-8.32 14 -9.64 14 -11 14 C-11 10.37 -11 6.74 -11 3 C-7.37 3 -3.74 3 0 3 C0 2.01 0 1.02 0 0 Z " fill="#E7D169" transform="translate(25,11)"/>
<path d="M0 0 C0.66 0 1.32 0 2 0 C2 0.66 2 1.32 2 2 C3.65 2 5.3 2 7 2 C7 3.32 7 4.64 7 6 C4.69 6 2.38 6 0 6 C0 6.99 0 7.98 0 9 C2.31 9 4.62 9 7 9 C7 12.63 7 16.26 7 20 C7.99 20 8.98 20 10 20 C10 17.69 10 15.38 10 13 C12.64 13 15.28 13 18 13 C18 15.31 18 17.62 18 20 C16.68 20 15.36 20 14 20 C14 20.99 14 21.98 14 23 C12.68 23 11.36 23 10 23 C10 24.32 10 25.64 10 27 C7.69 27 5.38 27 3 27 C3 29.31 3 31.62 3 34 C2.01 34 1.02 34 0 34 C0 32.68 0 31.36 0 30 C-1.32 30 -2.64 30 -4 30 C-4 32.64 -4 35.28 -4 38 C-6.31 38 -8.62 38 -11 38 C-11 36.68 -11 35.36 -11 34 C-11.99 34 -12.98 34 -14 34 C-14 34.99 -14 35.98 -14 37 C-15.32 37 -16.64 37 -18 37 C-18 38.32 -18 39.64 -18 41 C-19.32 41 -20.64 41 -22 41 C-22 40.01 -22 39.02 -22 38 C-25.63 38 -29.26 38 -33 38 C-33 36.68 -33 35.36 -33 34 C-33.99 34 -34.98 34 -36 34 C-36 32.68 -36 31.36 -36 30 C-35.01 30 -34.02 30 -33 30 C-33 26.7 -33 23.4 -33 20 C-31.68 20 -30.36 20 -29 20 C-29 16.37 -29 12.74 -29 9 C-31.31 9 -33.62 9 -36 9 C-36 10.32 -36 11.64 -36 13 C-37.32 13 -38.64 13 -40 13 C-40 10.36 -40 7.72 -40 5 C-35.05 5 -30.1 5 -25 5 C-25 7.64 -25 10.28 -25 13 C-24.01 13 -23.02 13 -22 13 C-22 13.99 -22 14.98 -22 16 C-18.37 16 -14.74 16 -11 16 C-11 12.37 -11 8.74 -11 5 C-7.37 5 -3.74 5 0 5 C0 3.35 0 1.7 0 0 Z " fill="#A89340" transform="translate(75,48)"/>
<path d="M0 0 C5.94 0 11.88 0 18 0 C18 0.99 18 1.98 18 3 C20.31 3 22.62 3 25 3 C25 4.32 25 5.64 25 7 C28.63 7 32.26 7 36 7 C36 12.94 36 18.88 36 25 C33.69 25 31.38 25 29 25 C29 23.68 29 22.36 29 21 C26.69 21 24.38 21 22 21 C22 20.01 22 19.02 22 18 C22.99 18 23.98 18 25 18 C25 16.68 25 15.36 25 14 C22.69 14 20.38 14 18 14 C18 12.68 18 11.36 18 10 C15.69 10 13.38 10 11 10 C11 9.01 11 8.02 11 7 C7.37 7 3.74 7 0 7 C0 7.99 0 8.98 0 10 C2.31 10 4.62 10 7 10 C7 11.32 7 12.64 7 14 C4.69 14 2.38 14 0 14 C0 14.99 0 15.98 0 17 C-2.31 17 -4.62 17 -7 17 C-7 16.01 -7 15.02 -7 14 C-9.31 14 -11.62 14 -14 14 C-14 11.69 -14 9.38 -14 7 C-11.69 7 -9.38 7 -7 7 C-7 5.68 -7 4.36 -7 3 C-4.69 3 -2.38 3 0 3 C0 2.01 0 1.02 0 0 Z " fill="#75512A" transform="translate(57,18)"/>
<path d="M0 0 C2.31 0 4.62 0 7 0 C7 0.99 7 1.98 7 3 C7.99 3 8.98 3 10 3 C10 4.32 10 5.64 10 7 C9.01 7 8.02 7 7 7 C7 8.32 7 9.64 7 11 C7.99 11 8.98 11 10 11 C10 11.99 10 12.98 10 14 C8.02 14 6.04 14 4 14 C4 14.99 4 15.98 4 17 C4.99 17 5.98 17 7 17 C7 18.32 7 19.64 7 21 C8.32 21 9.64 21 11 21 C11 19.68 11 18.36 11 17 C11.99 17 12.98 17 14 17 C14 15.02 14 13.04 14 11 C13.01 11 12.02 11 11 11 C11 9.68 11 8.36 11 7 C11.99 7 12.98 7 14 7 C14 7.99 14 8.98 14 10 C15.32 10 16.64 10 18 10 C18 13.63 18 17.26 18 21 C16.68 21 15.36 21 14 21 C14 21.99 14 22.98 14 24 C7.79984179 25.91641254 3.41414231 26.00220974 -3 25 C-3 28.3 -3 31.6 -3 35 C-3.33 35 -3.66 35 -4 35 C-4 31.37 -4 27.74 -4 24 C-1.69 24 0.62 24 3 24 C3 23.01 3 22.02 3 21 C2.01 21 1.02 21 0 21 C0 20.01 0 19.02 0 18 C-2.31 18 -4.62 18 -7 18 C-7 16.68 -7 15.36 -7 14 C-8.32 14 -9.64 14 -11 14 C-11 10.37 -11 6.74 -11 3 C-7.37 3 -3.74 3 0 3 C0 2.01 0 1.02 0 0 Z " fill="#D6E6EB" transform="translate(25,11)"/>
<path d="M0 0 C1.32 0 2.64 0 4 0 C4 6.93 4 13.86 4 21 C4.99 21 5.98 21 7 21 C7 19.68 7 18.36 7 17 C7.99 17 8.98 17 10 17 C10 12.38 10 7.76 10 3 C11.32 3 12.64 3 14 3 C14 6.63 14 10.26 14 14 C14.99 14 15.98 14 17 14 C17 11.69 17 9.38 17 7 C19.64 7 22.28 7 25 7 C25 9.31 25 11.62 25 14 C23.68 14 22.36 14 21 14 C21 14.99 21 15.98 21 17 C19.68 17 18.36 17 17 17 C17 18.32 17 19.64 17 21 C14.69 21 12.38 21 10 21 C10 23.31 10 25.62 10 28 C9.01 28 8.02 28 7 28 C7 26.68 7 25.36 7 24 C5.68 24 4.36 24 3 24 C3 26.64 3 29.28 3 32 C0.69 32 -1.62 32 -4 32 C-4 30.68 -4 29.36 -4 28 C-2.68 28 -1.36 28 0 28 C0 18.76 0 9.52 0 0 Z " fill="#58411C" transform="translate(68,54)"/>
<path d="M0 0 C4.95 0 9.9 0 15 0 C15 2.64 15 5.28 15 8 C15.99 8 16.98 8 18 8 C18 14.93 18 21.86 18 29 C14.7 29 11.4 29 8 29 C8 24.38 8 19.76 8 15 C8.99 15 9.98 15 11 15 C11 11.37 11 7.74 11 4 C8.69 4 6.38 4 4 4 C4 5.32 4 6.64 4 8 C2.68 8 1.36 8 0 8 C0 5.36 0 2.72 0 0 Z " fill="#141228" transform="translate(35,53)"/>
<path d="M0 0 C3.63 0 7.26 0 11 0 C11 0.99 11 1.98 11 3 C13.31 3 15.62 3 18 3 C18 4.32 18 5.64 18 7 C20.31 7 22.62 7 25 7 C25 8.32 25 9.64 25 11 C24.01 11 23.02 11 22 11 C22 11.99 22 12.98 22 14 C24.31 14 26.62 14 29 14 C29 15.32 29 16.64 29 18 C32.3 18 35.6 18 39 18 C39 18.99 39 19.98 39 21 C40.32 21 41.64 21 43 21 C43 23.64 43 26.28 43 29 C41.68 29 40.36 29 39 29 C39 29.99 39 30.98 39 32 C38.01 32 37.02 32 36 32 C36 30.68 36 29.36 36 28 C36.99 28 37.98 28 39 28 C39 27.01 39 26.02 39 25 C38.01 25 37.02 25 36 25 C36 23.68 36 22.36 36 21 C33.36 21 30.72 21 28 21 C28 20.01 28 19.02 28 18 C25.69 18 23.38 18 21 18 C21 18.99 21 19.98 21 21 C20.01 21 19.02 21 18 21 C18 19.68 18 18.36 18 17 C18.99 17 19.98 17 21 17 C21 16.01 21 15.02 21 14 C19.02 14 17.04 14 15 14 C15 11.69 15 9.38 15 7 C12.36 7 9.72 7 7 7 C7 5.68 7 4.36 7 3 C4.69 3 2.38 3 0 3 C0 2.01 0 1.02 0 0 Z " fill="#DCD8C8" transform="translate(57,25)"/>
<path d="M0 0 C4.95 0 9.9 0 15 0 C15 7.875 15 7.875 14 11 C13.01 11 12.02 11 11 11 C11 12.32 11 13.64 11 15 C11.99 15 12.98 15 14 15 C14.33 20.61 14.66 26.22 15 32 C13.68 32 12.36 32 11 32 C11 31.01 11 30.02 11 29 C9.68 29 8.36 29 7 29 C7 20.75 7 12.5 7 4 C6.01 4 5.02 4 4 4 C4 4.99 4 5.98 4 7 C2.68 7 1.36 7 0 7 C0 4.69 0 2.38 0 0 Z " fill="#624E3A" transform="translate(14,46)"/>
<path d="M0 0 C1.98 0 3.96 0 6 0 C6 0.99 6 1.98 6 3 C7.21816406 2.98839844 8.43632813 2.97679687 9.69140625 2.96484375 C11.31510262 2.95545822 12.93880067 2.94635884 14.5625 2.9375 C15.76229492 2.92493164 15.76229492 2.92493164 16.98632812 2.91210938 C21.77163104 2.89257753 26.28145051 3.19562982 31 4 C31 4.66 31 5.32 31 6 C30.01 6 29.02 6 28 6 C28 9.63 28 13.26 28 17 C24.37 17 20.74 17 17 17 C17 16.01 17 15.02 17 14 C16.01 14 15.02 14 14 14 C14 11.36 14 8.72 14 6 C10.37 6 6.74 6 3 6 C3 5.01 3 4.02 3 3 C2.01 3 1.02 3 0 3 C0 2.01 0 1.02 0 0 Z " fill="#CFB955" transform="translate(36,47)"/>
<path d="M0 0 C2.31 0 4.62 0 7 0 C7 2.31 7 4.62 7 7 C9.31 7 11.62 7 14 7 C14 8.32 14 9.64 14 11 C11.69 11 9.38 11 7 11 C7 11.99 7 12.98 7 14 C4.69 14 2.38 14 0 14 C0 13.01 0 12.02 0 11 C-2.31 11 -4.62 11 -7 11 C-7 8.69 -7 6.38 -7 4 C-4.69 4 -2.38 4 0 4 C0 2.68 0 1.36 0 0 Z " fill="#C4A74A" transform="translate(50,21)"/>
<path d="M0 0 C1.32 0 2.64 0 4 0 C4 5.94 4 11.88 4 18 C1.69 18 -0.62 18 -3 18 C-3 16.68 -3 15.36 -3 14 C-5.31 14 -7.62 14 -10 14 C-10 13.01 -10 12.02 -10 11 C-9.01 11 -8.02 11 -7 11 C-7 9.68 -7 8.36 -7 7 C-5.68 7 -4.36 7 -3 7 C-3 6.01 -3 5.02 -3 4 C-2.01 4 -1.02 4 0 4 C0 2.68 0 1.36 0 0 Z " fill="#574732" transform="translate(89,25)"/>
<path d="M0 0 C1.32 0 2.64 0 4 0 C4 2.31 4 4.62 4 7 C3.01 7 2.02 7 1 7 C1 10.63 1 14.26 1 18 C2.98 18 4.96 18 7 18 C7 18.99 7 19.98 7 21 C6.01 21 5.02 21 4 21 C4 22.32 4 23.64 4 25 C2.68 25 1.36 25 0 25 C0 24.01 0 23.02 0 22 C-3.63 22 -7.26 22 -11 22 C-11 20.68 -11 19.36 -11 18 C-11.99 18 -12.98 18 -14 18 C-14 16.68 -14 15.36 -14 14 C-13.01 14 -12.02 14 -11 14 C-11 10.7 -11 7.4 -11 4 C-10.67 4 -10.34 4 -10 4 C-10 8.62 -10 13.24 -10 18 C-6.7 18 -3.4 18 0 18 C0 12.06 0 6.12 0 0 Z " fill="#7F643F" transform="translate(53,64)"/>
<path d="M0 0 C1.98 0 3.96 0 6 0 C6 0.99 6 1.98 6 3 C8.64 3 11.28 3 14 3 C14 4.32 14 5.64 14 7 C14.99 7 15.98 7 17 7 C17 7.99 17 8.98 17 10 C16.01 10 15.02 10 14 10 C14 11.32 14 12.64 14 14 C11.36 14 8.72 14 6 14 C6 11.69 6 9.38 6 7 C5.01 7 4.02 7 3 7 C3 5.68 3 4.36 3 3 C2.01 3 1.02 3 0 3 C0 2.01 0 1.02 0 0 Z " fill="#8A7C4A" transform="translate(79,43)"/>
<path d="M0 0 C2.31 0 4.62 0 7 0 C7 5.94 7 11.88 7 18 C6.01 18 5.02 18 4 18 C3.67 15.69 3.34 13.38 3 11 C2.01 11 1.02 11 0 11 C0 11.99 0 12.98 0 14 C-0.99 14 -1.98 14 -3 14 C-3 12.68 -3 11.36 -3 10 C-2.34 10 -1.68 10 -1 10 C-1 9.34 -1 8.68 -1 8 C-2.98 8 -4.96 8 -7 8 C-7 6.68 -7 5.36 -7 4 C-4.69 4 -2.38 4 0 4 C0 4.99 0 5.98 0 7 C1.32 7 2.64 7 4 7 C4 5.68 4 4.36 4 3 C2.68 3 1.36 3 0 3 C0 2.01 0 1.02 0 0 Z " fill="#4E361B" transform="translate(64,32)"/>
<path d="M0 0 C0.99 0 1.98 0 3 0 C3 0.99 3 1.98 3 3 C4.32 3 5.64 3 7 3 C7 6.63 7 10.26 7 14 C5.68 14 4.36 14 3 14 C3 14.99 3 15.98 3 17 C-3.20015821 18.91641254 -7.58585769 19.00220974 -14 18 C-14 21.3 -14 24.6 -14 28 C-14.33 28 -14.66 28 -15 28 C-15 24.37 -15 20.74 -15 17 C-12.69 17 -10.38 17 -8 17 C-8 16.01 -8 15.02 -8 14 C-5.36 14 -2.72 14 0 14 C0 12.68 0 11.36 0 10 C0.99 10 1.98 10 3 10 C3 8.02 3 6.04 3 4 C2.01 4 1.02 4 0 4 C0 2.68 0 1.36 0 0 Z " fill="#D2D495" transform="translate(36,18)"/>
<path d="M0 0 C0.33 0 0.66 0 1 0 C1 3.3 1 6.6 1 10 C1.99 10 2.98 10 4 10 C4 9.01 4 8.02 4 7 C5.32 7 6.64 7 8 7 C8 9.31 8 11.62 8 14 C8.99 14 9.98 14 11 14 C11 12.68 11 11.36 11 10 C11.99 10 12.98 10 14 10 C14 12.31 14 14.62 14 17 C13.01 17 12.02 17 11 17 C11 18.32 11 19.64 11 21 C10.01 21 9.02 21 8 21 C8 19.68 8 18.36 8 17 C5.69 17 3.38 17 1 17 C-0.18681726 13.43954823 -0.09689832 10.56191663 -0.0625 6.8125 C-0.05347656 5.54019531 -0.04445313 4.26789063 -0.03515625 2.95703125 C-0.02355469 1.98121094 -0.01195313 1.00539062 0 0 Z " fill="#D09F34" transform="translate(28,61)"/>
<path d="M0 0 C4.95 0 9.9 0 15 0 C15 2.64 15 5.28 15 8 C15.99 8 16.98 8 18 8 C18 8.99 18 9.98 18 11 C16.02 11 14.04 11 12 11 C11.67 12.32 11.34 13.64 11 15 C11 11.37 11 7.74 11 4 C8.69 4 6.38 4 4 4 C4 5.32 4 6.64 4 8 C2.68 8 1.36 8 0 8 C0 5.36 0 2.72 0 0 Z " fill="#6E602E" transform="translate(35,53)"/>
<path d="M0 0 C1.32 0 2.64 0 4 0 C4 1.32 4 2.64 4 4 C2.68 4 1.36 4 0 4 C0 5.98 0 7.96 0 10 C-0.99 10.495 -0.99 10.495 -2 11 C-2.99 12.485 -2.99 12.485 -4 14 C-4 13.01 -4 12.02 -4 11 C-6.31 11 -8.62 11 -11 11 C-11 9.68 -11 8.36 -11 7 C-12.98 7 -14.96 7 -17 7 C-17 6.01 -17 5.02 -17 4 C-16.35933594 4.01160156 -15.71867187 4.02320313 -15.05859375 4.03515625 C-9.91346778 4.08883119 -5.06975076 3.88169578 0 3 C0 2.01 0 1.02 0 0 Z " fill="#ECD25E" transform="translate(39,32)"/>
<path d="M0 0 C0.99 0 1.98 0 3 0 C3 10.56 3 21.12 3 32 C0.69 32 -1.62 32 -4 32 C-4 30.68 -4 29.36 -4 28 C-2.68 28 -1.36 28 0 28 C0 18.76 0 9.52 0 0 Z " fill="#362613" transform="translate(68,54)"/>
<path d="M0 0 C2.31 0 4.62 0 7 0 C7 0.99 7 1.98 7 3 C7.99 3 8.98 3 10 3 C10 4.32 10 5.64 10 7 C9.01 7 8.02 7 7 7 C7 8.32 7 9.64 7 11 C7.99 11 8.98 11 10 11 C10 11.99 10 12.98 10 14 C8.02 14 6.04 14 4 14 C4 12.68 4 11.36 4 10 C2.68 10 1.36 10 0 10 C0 9.01 0 8.02 0 7 C0.99 7 1.98 7 3 7 C3 5.68 3 4.36 3 3 C2.01 3 1.02 3 0 3 C0 2.01 0 1.02 0 0 Z " fill="#EFF5F6" transform="translate(25,11)"/>
<path d="M0 0 C0 4.29 0 8.58 0 13 C-0.99 13 -1.98 13 -3 13 C-3 14.32 -3 15.64 -3 17 C-3.99 17 -4.98 17 -6 17 C-6 11.72 -6 6.44 -6 1 C-4 0 -4 0 0 0 Z " fill="#A9953E" transform="translate(78,58)"/>
<path d="M0 0 C0.33 0 0.66 0 1 0 C1 2.31 1 4.62 1 7 C2.98 7 4.96 7 7 7 C7 7.99 7 8.98 7 10 C6.01 10 5.02 10 4 10 C4 11.32 4 12.64 4 14 C4.99 14 5.98 14 7 14 C7.33 13.01 7.66 12.02 8 11 C8 11.99 8 12.98 8 14 C8.99 14 9.98 14 11 14 C11 15.32 11 16.64 11 18 C9.35 18 7.7 18 6 18 C6 17.34 6 16.68 6 16 C5.34 16 4.68 16 4 16 C4 16.66 4 17.32 4 18 C2.68 18 1.36 18 0 18 C0 12.06 0 6.12 0 0 Z " fill="#B9AD7B" transform="translate(71,32)"/>
<path d="M0 0 C3.3 0 6.6 0 10 0 C10 0.99 10 1.98 10 3 C11.32 3 12.64 3 14 3 C14 5.64 14 8.28 14 11 C12.68 11 11.36 11 10 11 C10 11.99 10 12.98 10 14 C9.01 14 8.02 14 7 14 C7 12.68 7 11.36 7 10 C7.99 10 8.98 10 10 10 C10 9.01 10 8.02 10 7 C9.01 7 8.02 7 7 7 C7 5.68 7 4.36 7 3 C4.69 3 2.38 3 0 3 C0 2.01 0 1.02 0 0 Z " fill="#F1F4F4" transform="translate(86,43)"/>
<path d="M0 0 C4.95 0 9.9 0 15 0 C15 2.31 15 4.62 15 7 C13.68 7 12.36 7 11 7 C11 6.01 11 5.02 11 4 C8.69 4 6.38 4 4 4 C4 4.99 4 5.98 4 7 C2.68 7 1.36 7 0 7 C0 4.69 0 2.38 0 0 Z " fill="#202319" transform="translate(14,46)"/>
<path d="M0 0 C0.33 0 0.66 0 1 0 C1 2.64 1 5.28 1 8 C1.99 8 2.98 8 4 8 C4 9.98 4 11.96 4 14 C3.01 14 2.02 14 1 14 C1 15.32 1 16.64 1 18 C-0.32 18 -1.64 18 -3 18 C-3 16.68 -3 15.36 -3 14 C-3.99 14 -4.98 14 -6 14 C-6 13.01 -6 12.02 -6 11 C-4.02 11 -2.04 11 0 11 C0 10.01 0 9.02 0 8 C-0.99 8 -1.98 8 -3 8 C-3 6.68 -3 5.36 -3 4 C-2.01 4 -1.02 4 0 4 C0 2.68 0 1.36 0 0 Z " fill="#639FB6" transform="translate(35,14)"/>
<path d="M0 0 C0.99 0 1.98 0 3 0 C3 1.32 3 2.64 3 4 C3.99 4 4.98 4 6 4 C6 7.3 6 10.6 6 14 C4.02 14 2.04 14 0 14 C0 9.38 0 4.76 0 0 Z " fill="#131329" transform="translate(22,57)"/>
<path d="M0 0 C0.99 0 1.98 0 3 0 C3.33 2.31 3.66 4.62 4 7 C6.31 7 8.62 7 11 7 C11 7.99 11 8.98 11 10 C8.36 10 5.72 10 3 10 C3 9.34 3 8.68 3 8 C0.69 8 -1.62 8 -4 8 C-3.67 6.35 -3.34 4.7 -3 3 C-2.01 3 -1.02 3 0 3 C0 2.01 0 1.02 0 0 Z " fill="#DAC980" transform="translate(64,43)"/>
<path d="M0 0 C0 3.3 0 6.6 0 10 C-1.98 10 -3.96 10 -6 10 C-6.12375 9.030625 -6.2475 8.06125 -6.375 7.0625 C-6.58125 6.051875 -6.7875 5.04125 -7 4 C-7.66 3.67 -8.32 3.34 -9 3 C-9 2.34 -9 1.68 -9 1 C-5.72921858 0.03087958 -3.60964568 0 0 0 Z " fill="#2B1D0A" transform="translate(92,32)"/>
<path d="M0 0 C1.98 0 3.96 0 6 0 C6 3.3 6 6.6 6 10 C4.02 10 2.04 10 0 10 C0 6.7 0 3.4 0 0 Z " fill="#2E2010" transform="translate(86,47)"/>
<path d="M0 0 C2.31 0 4.62 0 7 0 C7 2.31 7 4.62 7 7 C5.68 7 4.36 7 3 7 C3 7.99 3 8.98 3 10 C2.01 10 1.02 10 0 10 C0 6.7 0 3.4 0 0 Z " fill="#2C1E0C" transform="translate(86,61)"/>
<path d="M0 0 C3.63 0 7.26 0 11 0 C11 0.99 11 1.98 11 3 C13.31 3 15.62 3 18 3 C17.67 4.32 17.34 5.64 17 7 C17 6.01 17 5.02 17 4 C14.69 4 12.38 4 10 4 C10.33 4.99 10.66 5.98 11 7 C9.68 7 8.36 7 7 7 C7 5.68 7 4.36 7 3 C4.69 3 2.38 3 0 3 C0 2.01 0 1.02 0 0 Z " fill="#DABF53" transform="translate(57,25)"/>
<path d="M0 0 C0.99 0 1.98 0 3 0 C3 0.99 3 1.98 3 3 C4.32 3 5.64 3 7 3 C7 6.63 7 10.26 7 14 C5.68 14 4.36 14 3 14 C3 10.7 3 7.4 3 4 C2.01 4 1.02 4 0 4 C0 2.68 0 1.36 0 0 Z " fill="#E0E7E6" transform="translate(36,18)"/>
<path d="M0 0 C2.31 0 4.62 0 7 0 C7 0.99 7 1.98 7 3 C8.32 3.33 9.64 3.66 11 4 C10.01 4 9.02 4 8 4 C8 4.66 8 5.32 8 6 C8.99 6 9.98 6 11 6 C10.67 7.32 10.34 8.64 10 10 C10 9.01 10 8.02 10 7 C9.01 7 8.02 7 7 7 C7 7.99 7 8.98 7 10 C6.01 10 5.02 10 4 10 C4 8.68 4 7.36 4 6 C4.66 6 5.32 6 6 6 C6 5.34 6 4.68 6 4 C4.02 4 2.04 4 0 4 C0 2.68 0 1.36 0 0 Z " fill="#A8873B" transform="translate(57,36)"/>
<path d="M0 0 C4.29 0 8.58 0 13 0 C13 1.98 13 3.96 13 6 C12.34 6 11.68 6 11 6 C11 5.01 11 4.02 11 3 C8.36 3 5.72 3 3 3 C3 3.99 3 4.98 3 6 C2.01 6 1.02 6 0 6 C0 4.02 0 2.04 0 0 Z " fill="#0E0C08" transform="translate(36,54)"/>
<path d="M0 0 C0.66 0 1.32 0 2 0 C2 0.66 2 1.32 2 2 C3.65 2 5.3 2 7 2 C7 3.32 7 4.64 7 6 C4.69 6 2.38 6 0 6 C0 6.99 0 7.98 0 9 C0.99 9.33 1.98 9.66 3 10 C1.02 10.33 -0.96 10.66 -3 11 C-3.33 9.02 -3.66 7.04 -4 5 C-2.68 5 -1.36 5 0 5 C0 3.35 0 1.7 0 0 Z " fill="#B6A96E" transform="translate(75,48)"/>
<path d="M0 0 C2.97 0 5.94 0 9 0 C9 0.66 9 1.32 9 2 C8.34 2 7.68 2 7 2 C6.67 4.64 6.34 7.28 6 10 C3.03 10 0.06 10 -3 10 C-3 9.67 -3 9.34 -3 9 C-1.02 9 0.96 9 3 9 C3 6.69 3 4.38 3 2 C2.01 2 1.02 2 0 2 C0 1.34 0 0.68 0 0 Z " fill="#EFD457" transform="translate(54,40)"/>
<path d="M0 0 C1.98 0 3.96 0 6 0 C6 0.99 6 1.98 6 3 C8.64 3 11.28 3 14 3 C14 3.99 14 4.98 14 6 C10.37 6 6.74 6 3 6 C3 5.01 3 4.02 3 3 C2.01 3 1.02 3 0 3 C0 2.01 0 1.02 0 0 Z " fill="#CAB13E" transform="translate(36,47)"/>
<path d="M0 0 C2.31 0 4.62 0 7 0 C7 0.99 7 1.98 7 3 C8.32 3 9.64 3 11 3 C11 4.32 11 5.64 11 7 C9.68 7 8.36 7 7 7 C7 6.01 7 5.02 7 4 C2.38 4 -2.24 4 -7 4 C-7 3.67 -7 3.34 -7 3 C-4.69 3 -2.38 3 0 3 C0 2.01 0 1.02 0 0 Z " fill="#C3A54A" transform="translate(57,32)"/>
<path d="M0 0 C2.31 0 4.62 0 7 0 C7 2.31 7 4.62 7 7 C4.69 7 2.38 7 0 7 C0 4.69 0 2.38 0 0 Z " fill="#9A7628" transform="translate(57,64)"/>
<path d="M0 0 C2.31 0 4.62 0 7 0 C7.33 1.32 7.66 2.64 8 4 C7.34 4 6.68 4 6 4 C6 4.66 6 5.32 6 6 C7.65 6 9.3 6 11 6 C11 7.32 11 8.64 11 10 C9.02 10 7.04 10 5 10 C5 7.69 5 5.38 5 3 C3.35 2.67 1.7 2.34 0 2 C0 1.34 0 0.68 0 0 Z " fill="#F3DC75" transform="translate(67,29)"/>
<path d="M0 0 C2.31 0 4.62 0 7 0 C7 2.31 7 4.62 7 7 C4.69 7 2.38 7 0 7 C0 4.69 0 2.38 0 0 Z " fill="#987B3E" transform="translate(50,21)"/>
<path d="M0 0 C0.33 0 0.66 0 1 0 C1 9.24 1 18.48 1 28 C-1.31 28 -3.62 28 -6 28 C-6 27.01 -6 26.02 -6 25 C-4.02 25 -2.04 25 0 25 C0 16.75 0 8.5 0 0 Z " fill="#816E2F" transform="translate(67,54)"/>
<path d="M0 0 C2.31 0 4.62 0 7 0 C7 1.32 7 2.64 7 4 C7.99 4 8.98 4 10 4 C10 4.99 10 5.98 10 7 C7.69 7 5.38 7 3 7 C3 5.68 3 4.36 3 3 C2.01 3 1.02 3 0 3 C0 2.01 0 1.02 0 0 Z " fill="#65A0B8" transform="translate(18,18)"/>
<path d="M0 0 C0.99 0 1.98 0 3 0 C3 4.95 3 9.9 3 15 C2.01 15 1.02 15 0 15 C0 10.05 0 5.1 0 0 Z " fill="#302009" transform="translate(79,58)"/>
<path d="M0 0 C0.99 0 1.98 0 3 0 C3 2.31 3 4.62 3 7 C-0.3 7 -3.6 7 -7 7 C-7 6.01 -7 5.02 -7 4 C-4.69 4 -2.38 4 0 4 C0 2.68 0 1.36 0 0 Z " fill="#EEEBE4" transform="translate(82,50)"/>
<path d="M0 0 C1.98 0 3.96 0 6 0 C6 2.31 6 4.62 6 7 C4.02 7 2.04 7 0 7 C0 4.69 0 2.38 0 0 Z " fill="#D9C738" transform="translate(22,39)"/>
<path d="M0 0 C0.99 0 1.98 0 3 0 C3 0.99 3 1.98 3 3 C5.64 3 8.28 3 11 3 C11 3.33 11 3.66 11 4 C8.36 4 5.72 4 3 4 C3 6.31 3 8.62 3 11 C2.01 11 1.02 11 0 11 C0 7.37 0 3.74 0 0 Z " fill="#A39350" transform="translate(82,57)"/>
<path d="M0 0 C0.33 0 0.66 0 1 0 C1 2.31 1 4.62 1 7 C2.98 7 4.96 7 7 7 C7 7.99 7 8.98 7 10 C6.01 10 5.02 10 4 10 C4 11.32 4 12.64 4 14 C3.01 14 2.02 14 1 14 C-0.04976964 10.85069107 -0.10131595 8.61185544 -0.0625 5.3125 C-0.05347656 4.31863281 -0.04445313 3.32476562 -0.03515625 2.30078125 C-0.02355469 1.54152344 -0.01195313 0.78226563 0 0 Z " fill="#D1BD63" transform="translate(71,32)"/>
<path d="M0 0 C1.32 0 2.64 0 4 0 C4 0.99 4 1.98 4 3 C4.99 3 5.98 3 7 3 C7 4.32 7 5.64 7 7 C4.69 7 2.38 7 0 7 C0 4.69 0 2.38 0 0 Z " fill="#8E5D2C" transform="translate(21,50)"/>
<path d="M0 0 C2.31 0 4.62 0 7 0 C7 1.98 7 3.96 7 6 C2.25 5.125 2.25 5.125 0 4 C0 2.68 0 1.36 0 0 Z " fill="#DAC050" transform="translate(39,57)"/>
<path d="M0 0 C0.99 0 1.98 0 3 0 C3 3.3 3 6.6 3 10 C1.68 10 0.36 10 -1 10 C-1 9.01 -1 8.02 -1 7 C-1.99 6.67 -2.98 6.34 -4 6 C-2.68 6 -1.36 6 0 6 C0 4.02 0 2.04 0 0 Z " fill="#AE963F" transform="translate(54,54)"/>
<path d="M0 0 C0.33 0 0.66 0 1 0 C1 6.93 1 13.86 1 21 C1.99 21 2.98 21 4 21 C4 21.99 4 22.98 4 24 C2.68 24 1.36 24 0 24 C0 16.08 0 8.16 0 0 Z " fill="#816427" transform="translate(71,54)"/>
<path d="M0 0 C0.99 0 1.98 0 3 0 C3.33 2.64 3.66 5.28 4 8 C2.68 8 1.36 8 0 8 C-0.33 8.99 -0.66 9.98 -1 11 C-0.67 7.37 -0.34 3.74 0 0 Z " fill="#D7C03E" transform="translate(29,46)"/>
<path d="M0 0 C0.99 0 1.98 0 3 0 C3 1.32 3 2.64 3 4 C4.32 4 5.64 4 7 4 C7 4.99 7 5.98 7 7 C4.69 7 2.38 7 0 7 C0 4.69 0 2.38 0 0 Z " fill="#815C31" transform="translate(43,25)"/>
<path d="M0 0 C0 1.32 0 2.64 0 4 C-0.99 4 -1.98 4 -3 4 C-3.33 4.99 -3.66 5.98 -4 7 C-4 5.68 -4 4.36 -4 3 C-5.65 3 -7.3 3 -9 3 C-9 2.34 -9 1.68 -9 1 C-6.04335481 -0.4783226 -3.25770263 -0.06032783 0 0 Z " fill="#DAC258" transform="translate(82,32)"/>
<path d="M0 0 C2.97 0 5.94 0 9 0 C9 0.66 9 1.32 9 2 C7.02 2.33 5.04 2.66 3 3 C2.34 4.98 1.68 6.96 1 9 C0.67 9 0.34 9 0 9 C0 6.03 0 3.06 0 0 Z " fill="#FBFCFC" transform="translate(15,15)"/>
<path d="M0 0 C0.33 0 0.66 0 1 0 C1 3.63 1 7.26 1 11 C1.99 11.33 2.98 11.66 4 12 C4 13.65 4 15.3 4 17 C3.01 17 2.02 17 1 17 C-0.18681726 13.43954823 -0.09689832 10.56191663 -0.0625 6.8125 C-0.05347656 5.54019531 -0.04445313 4.26789063 -0.03515625 2.95703125 C-0.02355469 1.98121094 -0.01195313 1.00539062 0 0 Z " fill="#A17833" transform="translate(28,61)"/>
<path d="M0 0 C2.31 0 4.62 0 7 0 C7 1.32 7 2.64 7 4 C6.01 4 5.02 4 4 4 C4 4.66 4 5.32 4 6 C4.99 6.33 5.98 6.66 7 7 C5.68 7 4.36 7 3 7 C3 5.68 3 4.36 3 3 C2.01 3 1.02 3 0 3 C0 2.01 0 1.02 0 0 Z " fill="#F3DA67" transform="translate(50,36)"/>
<path d="M0 0 C1.98 0 3.96 0 6 0 C6 0.99 6 1.98 6 3 C5.01 3 4.02 3 3 3 C3 4.32 3 5.64 3 7 C2.01 7 1.02 7 0 7 C0 4.69 0 2.38 0 0 Z " fill="#6B4315" transform="translate(54,82)"/>
<path d="M0 0 C0.99 0 1.98 0 3 0 C3 3.3 3 6.6 3 10 C2.01 10 1.02 10 0 10 C0 6.7 0 3.4 0 0 Z " fill="#DEC552" transform="translate(50,50)"/>
<path d="M0 0 C2.31 0 4.62 0 7 0 C7 3.3 7 6.6 7 10 C6.67 10 6.34 10 6 10 C6 8.02 6 6.04 6 4 C3.03 3.505 3.03 3.505 0 3 C0 2.01 0 1.02 0 0 Z " fill="#7D592C" transform="translate(64,32)"/>
<path d="M0 0 C0.99 0 1.98 0 3 0 C3 0.99 3 1.98 3 3 C4.32 3 5.64 3 7 3 C7 3.99 7 4.98 7 6 C4.69 6 2.38 6 0 6 C0 4.02 0 2.04 0 0 Z " fill="#F4F7F6" transform="translate(25,26)"/>
<path d="M0 0 C1.32 0 2.64 0 4 0 C4 0.99 4 1.98 4 3 C4.99 3 5.98 3 7 3 C7 3.99 7 4.98 7 6 C5.02 6 3.04 6 1 6 C0.67 4.02 0.34 2.04 0 0 Z " fill="#634220" transform="translate(57,18)"/>
<path d="M0 0 C3.96 0 7.92 0 12 0 C12 1.32 12 2.64 12 4 C8.7 4 5.4 4 2 4 C2 3.67 2 3.34 2 3 C3.98 3 5.96 3 8 3 C8 2.34 8 1.68 8 1 C5.36 1 2.72 1 0 1 C0 0.67 0 0.34 0 0 Z " fill="#ACCCD8" transform="translate(16,14)"/>
<path d="M0 0 C2.64 0.33 5.28 0.66 8 1 C7.01 1.495 7.01 1.495 6 2 C6 3.32 6 4.64 6 6 C4.68 6 3.36 6 2 6 C2 4.68 2 3.36 2 2 C1.34 2 0.68 2 0 2 C0 1.34 0 0.68 0 0 Z " fill="#67A0B0" transform="translate(30,26)"/>
<path d="M0 0 C1.32 0 2.64 0 4 0 C4 2.31 4 4.62 4 7 C2.68 7 1.36 7 0 7 C0 4.69 0 2.38 0 0 Z " fill="#784A13" transform="translate(53,64)"/>
<path d="M0 0 C1.32 0 2.64 0 4 0 C4 1.32 4 2.64 4 4 C2.68 4 1.36 4 0 4 C0 4.99 0 5.98 0 7 C-0.99 7 -1.98 7 -3 7 C-3 5.68 -3 4.36 -3 3 C-2.01 3 -1.02 3 0 3 C0 2.01 0 1.02 0 0 Z " fill="#98743A" transform="translate(39,32)"/>
<path d="M0 0 C0.33 0 0.66 0 1 0 C1 4.62 1 9.24 1 14 C-0.32 14 -1.64 14 -3 14 C-3 12.68 -3 11.36 -3 10 C-2.01 10 -1.02 10 0 10 C0 6.7 0 3.4 0 0 Z " fill="#996F31" transform="translate(42,68)"/>
<path d="M0 0 C1.32 0 2.64 0 4 0 C4 2.64 4 5.28 4 8 C2.68 8 1.36 8 0 8 C0 8.99 0 9.98 0 11 C-0.99 11 -1.98 11 -3 11 C-3 9.68 -3 8.36 -3 7 C-1.02 7 0.96 7 3 7 C3 5.02 3 3.04 3 1 C2.01 0.67 1.02 0.34 0 0 Z " fill="#CBDFE6" transform="translate(96,46)"/>
<path d="M0 0 C2.31 0 4.62 0 7 0 C7 1.32 7 2.64 7 4 C7.99 4 8.98 4 10 4 C10 4.99 10 5.98 10 7 C9.01 7 8.02 7 7 7 C6.67 8.32 6.34 9.64 6 11 C6 7.7 6 4.4 6 1 C4.02 1 2.04 1 0 1 C0 0.67 0 0.34 0 0 Z " fill="#6C7E83" transform="translate(86,46)"/>
<path d="M0 0 C1.65 0 3.3 0 5 0 C5 0.99 5 1.98 5 3 C4.01 3 3.02 3 2 3 C2 3.99 2 4.98 2 6 C3.98 6 5.96 6 8 6 C8 6.33 8 6.66 8 7 C5.69 7 3.38 7 1 7 C1 5.68 1 4.36 1 3 C0.34 2.67 -0.32 2.34 -1 2 C-0.67 1.34 -0.34 0.68 0 0 Z " fill="#F2D966" transform="translate(42,43)"/>
<path d="M0 0 C0.99 0.33 1.98 0.66 3 1 C3 1.66 3 2.32 3 3 C3.99 3 4.98 3 6 3 C6 3.99 6 4.98 6 6 C4.02 6 2.04 6 0 6 C0 4.02 0 2.04 0 0 Z " fill="#F7E076" transform="translate(29,36)"/>
<path d="M0 0 C0.66 0 1.32 0 2 0 C2 0.66 2 1.32 2 2 C3.65 2 5.3 2 7 2 C7 2.99 7 3.98 7 5 C4.69 5 2.38 5 0 5 C0 3.35 0 1.7 0 0 Z " fill="#7D6D3B" transform="translate(75,48)"/>
<path d="M0 0 C2.31 0 4.62 0 7 0 C7 2.31 7 4.62 7 7 C6.67 5.68 6.34 4.36 6 3 C4.02 3 2.04 3 0 3 C0 2.01 0 1.02 0 0 Z " fill="#F0DA65" transform="translate(22,36)"/>
<path d="M0 0 C2.64 0 5.28 0 8 0 C8 0.99 8 1.98 8 3 C5.36 3 2.72 3 0 3 C0 2.01 0 1.02 0 0 Z " fill="#E3E6E0" transform="translate(85,57)"/>
<path d="M0 0 C0.33 0 0.66 0 1 0 C1 3.63 1 7.26 1 11 C0.67 10.01 0.34 9.02 0 8 C-0.99 8 -1.98 8 -3 8 C-3 6.68 -3 5.36 -3 4 C-2.01 4 -1.02 4 0 4 C0 2.68 0 1.36 0 0 Z " fill="#94BCCC" transform="translate(35,14)"/>
<path d="M0 0 C0.33 1.32 0.66 2.64 1 4 C-1.31 4 -3.62 4 -6 4 C-6 3.01 -6 2.02 -6 1 C-4.02 0.67 -2.04 0.34 0 0 Z " fill="#7D4D13" transform="translate(67,78)"/>
<path d="M0 0 C0.99 0 1.98 0 3 0 C3 2.31 3 4.62 3 7 C2.01 7 1.02 7 0 7 C0 4.69 0 2.38 0 0 Z " fill="#3C2717" transform="translate(75,75)"/>
<path d="M0 0 C0.33 0 0.66 0 1 0 C1 2.31 1 4.62 1 7 C-0.32 7 -1.64 7 -3 7 C-3 7.99 -3 8.98 -3 10 C-3.99 10 -4.98 10 -6 10 C-5.67 8.68 -5.34 7.36 -5 6 C-3.35 6 -1.7 6 0 6 C0 4.02 0 2.04 0 0 Z " fill="#343832" transform="translate(92,61)"/>
<path d="M0 0 C2.31 0 4.62 0 7 0 C7 0.99 7 1.98 7 3 C4.69 3 2.38 3 0 3 C0 2.01 0 1.02 0 0 Z " fill="#F2EFE7" transform="translate(68,50)"/>
<path d="M0 0 C2.31 0 4.62 0 7 0 C7 0.99 7 1.98 7 3 C4.69 3 2.38 3 0 3 C0 2.01 0 1.02 0 0 Z " fill="#F7F3DE" transform="translate(60,47)"/>
<path d="M0 0 C2.31 0 4.62 0 7 0 C7 0.99 7 1.98 7 3 C4.69 3 2.38 3 0 3 C0 2.01 0 1.02 0 0 Z " fill="#845E2C" transform="translate(57,36)"/>
<path d="M0 0 C2.31 0 4.62 0 7 0 C7 0.99 7 1.98 7 3 C4.69 3 2.38 3 0 3 C0 2.01 0 1.02 0 0 Z " fill="#70602E" transform="translate(79,36)"/>
<path d="M0 0 C2.31 0 4.62 0 7 0 C7 0.99 7 1.98 7 3 C4.69 3 2.38 3 0 3 C0 2.01 0 1.02 0 0 Z " fill="#EBD36D" transform="translate(57,32)"/>
<path d="M0 0 C2.31 0 4.62 0 7 0 C7 0.99 7 1.98 7 3 C4.69 3 2.38 3 0 3 C0 2.01 0 1.02 0 0 Z " fill="#845D2B" transform="translate(50,32)"/>
<path d="M0 0 C0.99 0 1.98 0 3 0 C3 2.31 3 4.62 3 7 C2.01 7 1.02 7 0 7 C0 4.69 0 2.38 0 0 Z " fill="#E6D264" transform="translate(36,28)"/>
<path d="M0 0 C2.31 0 4.62 0 7 0 C7 0.99 7 1.98 7 3 C4.69 3 2.38 3 0 3 C0 2.01 0 1.02 0 0 Z " fill="#EBCE55" transform="translate(50,29)"/>
<path d="M0 0 C2.31 0 4.62 0 7 0 C7 0.99 7 1.98 7 3 C4.69 3 2.38 3 0 3 C0 2.01 0 1.02 0 0 Z " fill="#785526" transform="translate(57,29)"/>
<path d="M0 0 C2.31 0 4.62 0 7 0 C7 0.99 7 1.98 7 3 C4.69 3 2.38 3 0 3 C0 2.01 0 1.02 0 0 Z " fill="#EDD66D" transform="translate(57,25)"/>
<path d="M0 0 C0.33 0 0.66 0 1 0 C1 3.3 1 6.6 1 10 C-0.32 10 -1.64 10 -3 10 C-3 9.01 -3 8.02 -3 7 C-2.01 7 -1.02 7 0 7 C0 4.69 0 2.38 0 0 Z " fill="#714D18" transform="translate(85,61)"/>
<path d="M0 0 C0.33 1.32 0.66 2.64 1 4 C-1.64 4 -4.28 4 -7 4 C-7 3.34 -7 2.68 -7 2 C-4.69 1.34 -2.38 0.68 0 0 Z " fill="#F9F9F7" transform="translate(83,52)"/>
<path d="M0 0 C1.32 0 2.64 0 4 0 C4 1.32 4 2.64 4 4 C3.01 4 2.02 4 1 4 C0.67 4.99 0.34 5.98 0 7 C0 4.69 0 2.38 0 0 Z " fill="#A0935C" transform="translate(21,50)"/>
<path d="M0 0 C1.98 0 3.96 0 6 0 C6 0.99 6 1.98 6 3 C4.02 3 2.04 3 0 3 C0 2.01 0 1.02 0 0 Z " fill="#945D28" transform="translate(47,61)"/>
<path d="M0 0 C0 1.65 0 3.3 0 5 C-0.66 5 -1.32 5 -2 5 C-2 4.01 -2 3.02 -2 2 C-4.64 2 -7.28 2 -10 2 C-10 1.67 -10 1.34 -10 1 C-2.25 0 -2.25 0 0 0 Z " fill="#16130A" transform="translate(49,55)"/>
<path d="M0 0 C0.99 0.33 1.98 0.66 3 1 C2.67 1.99 2.34 2.98 2 4 C-0.97 4 -3.94 4 -7 4 C-7 3.67 -7 3.34 -7 3 C-5.02 3 -3.04 3 -1 3 C-0.67 2.01 -0.34 1.02 0 0 Z " fill="#F0D865" transform="translate(58,46)"/>
<path d="M0 0 C1.98 0 3.96 0 6 0 C6 0.99 6 1.98 6 3 C4.02 3 2.04 3 0 3 C0 2.01 0 1.02 0 0 Z " fill="#F9F7F0" transform="translate(72,36)"/>
</svg>
