<?xml version="1.0" encoding="UTF-8"?>
<svg version="1.1" xmlns="http://www.w3.org/2000/svg" width="114" height="114">
<path d="M0 0 C2.31 0 4.62 0 7 0 C7.33 0.99 7.66 1.98 8 3 C10.01508358 3.73323796 10.01508358 3.73323796 12 4 C12 4.99 12 5.98 12 7 C12.99 7.33 13.98 7.66 15 8 C15.33 8.66 15.66 9.32 16 10 C18.01669827 11.13350534 18.01669827 11.13350534 20 12 C20 12.66 20 13.32 20 14 C21.32 14 22.64 14 24 14 C24 13.01 24 12.02 24 11 C25.134375 10.71125 26.26875 10.4225 27.4375 10.125 C28.613125 9.75375 29.78875 9.3825 31 9 C31.33 8.34 31.66 7.68 32 7 C37.94 7 43.88 7 50 7 C50.495 8.98 50.495 8.98 51 11 C52.98 11 54.96 11 57 11 C57 11.99 57 12.98 57 14 C57.69867188 13.97679687 58.39734375 13.95359375 59.1171875 13.9296875 C60.48230469 13.90261719 60.48230469 13.90261719 61.875 13.875 C63.23238281 13.84019531 63.23238281 13.84019531 64.6171875 13.8046875 C67 14 67 14 69 16 C69.14507695 18.74485593 69.18652423 21.38480543 69.125 24.125 C69.11597656 24.87910156 69.10695313 25.63320313 69.09765625 26.41015625 C69.0740687 28.27357254 69.03819719 30.13682593 69 32 C70.485 32.495 70.485 32.495 72 33 C72 33.66 72 34.32 72 35 C73.98 35.495 73.98 35.495 76 36 C76 38.31 76 40.62 76 43 C75.38125 43.268125 74.7625 43.53625 74.125 43.8125 C71.7004767 44.95556848 71.7004767 44.95556848 70 48 C69.71052049 50.3199715 69.62343999 52.60568395 69.5390625 54.94140625 C69.27222656 55.96041016 69.27222656 55.96041016 69 57 C67.0234375 58.08984375 67.0234375 58.08984375 65 59 C64.67 59.99 64.34 60.98 64 62 C63.01 62 62.02 62 61 62 C60.67 63.32 60.34 64.64 60 66 C58.02 66 56.04 66 54 66 C54 67.98 54 69.96 54 72 C51.92446352 72.5534764 50.15634036 73 48 73 C47.505 74.485 47.505 74.485 47 76 C42.33333333 76 37.66666667 76 33 76 C32.505 77.98 32.505 77.98 32 80 C30.68 80 29.36 80 28 80 C28 78.68 28 77.36 28 76 C24.7 76 21.4 76 18 76 C17.67 74.68 17.34 73.36 17 72 C15.824375 72.2784375 15.824375 72.2784375 14.625 72.5625 C12 73 12 73 10 72 C10 71.01 10 70.02 10 69 C6.7 69 3.4 69 0 69 C-0.33 67.68 -0.66 66.36 -1 65 C-1.99 65 -2.98 65 -4 65 C-4 57.08 -4 49.16 -4 41 C-4.66 41 -5.32 41 -6 41 C-6.33 41.99 -6.66 42.98 -7 44 C-8.32 44 -9.64 44 -11 44 C-11.09765625 37.84765625 -11.09765625 37.84765625 -11 36 C-10 35 -10 35 -6.9375 34.9375 C-5.968125 34.958125 -4.99875 34.97875 -4 35 C-4 31.7 -4 28.4 -4 25 C-2.35 24.67 -0.7 24.34 1 24 C-0.15684329 21.9004467 -0.15684329 21.9004467 -2 20 C-4.62625139 19.66574265 -4.62625139 19.66574265 -7 20 C-7.33 18.68 -7.66 17.36 -8 16 C-9.32 15.67 -10.64 15.34 -12 15 C-12.05422947 13.5629191 -12.09289723 12.12524538 -12.125 10.6875 C-12.14820313 9.88699219 -12.17140625 9.08648437 -12.1953125 8.26171875 C-12 6 -12 6 -10 3 C-7.8359375 2.70703125 -7.8359375 2.70703125 -5.375 2.8125 C-4.55773437 2.83957031 -3.74046875 2.86664063 -2.8984375 2.89453125 C-1.95871094 2.94673828 -1.95871094 2.94673828 -1 3 C-0.67 2.01 -0.34 1.02 0 0 Z M-5 9 C-4.67 9.66 -4.34 10.32 -4 11 C-3.34 11 -2.68 11 -2 11 C-2 11.99 -2 12.98 -2 14 C-0.68 14 0.64 14 2 14 C2 13.34 2 12.68 2 12 C1.01 12 0.02 12 -1 12 C-1 11.01 -1 10.02 -1 9 C-2.32 9 -3.64 9 -5 9 Z M8 9 C9 11 9 11 9 11 Z M12 12 C12 12.99 12 13.98 12 15 C9.69 15 7.38 15 5 15 C5.75150023 18.27773504 5.75150023 18.27773504 9 20 C9 19.34 9 18.68 9 18 C10.32 17.67 11.64 17.34 13 17 C13 15.35 13 13.7 13 12 C12.67 12 12.34 12 12 12 Z " fill="#A59342" transform="translate(25,10)"/>
<path d="M0 0 C2.31 0 4.62 0 7 0 C7.33 0.99 7.66 1.98 8 3 C10.01508358 3.73323796 10.01508358 3.73323796 12 4 C12 4.99 12 5.98 12 7 C12.99 7.33 13.98 7.66 15 8 C16.67578125 9.20703125 16.67578125 9.20703125 18 11 C18.29296875 13.69921875 18.29296875 13.69921875 18.1875 16.6875 C18.16042969 17.68136719 18.13335937 18.67523437 18.10546875 19.69921875 C18.07066406 20.45847656 18.03585938 21.21773437 18 22 C20.31 22 22.62 22 25 22 C25 22.99 25 23.98 25 25 C27.31 25 29.62 25 32 25 C32 24.01 32 23.02 32 22 C34.31 22 36.62 22 39 22 C39 22.99 39 23.98 39 25 C40.32 25 41.64 25 43 25 C43 26.32 43 27.64 43 29 C41.68 29 40.36 29 39 29 C39 28.01 39 27.02 39 26 C36.69 26 34.38 26 32 26 C32 27.32 32 28.64 32 30 C33.98 30 35.96 30 38 30 C38 30.66 38 31.32 38 32 C37.34 32 36.68 32 36 32 C36 33.32 36 34.64 36 36 C36.99 36 37.98 36 39 36 C39 35.01 39 34.02 39 33 C39.99 33 40.98 33 42 33 C42.495 36.465 42.495 36.465 43 40 C45.31 40 47.62 40 50 40 C50 40.99 50 41.98 50 43 C46.37 43 42.74 43 39 43 C39 46.63 39 50.26 39 54 C35.37 54 31.74 54 28 54 C28 53.01 28 52.02 28 51 C27.01 51 26.02 51 25 51 C25 48.36 25 45.72 25 43 C20.05 43 15.1 43 10 43 C10 45.64 10 48.28 10 51 C11.32 51 12.64 51 14 51 C14 49.68 14 48.36 14 47 C16.31 47 18.62 47 21 47 C21 50.63 21 54.26 21 58 C19.68 58 18.36 58 17 58 C17 61.3 17 64.6 17 68 C16.01 68 15.02 68 14 68 C14 68.99 14 69.98 14 71 C13.01 71 12.02 71 11 71 C11 70.01 11 69.02 11 68 C9.68 68 8.36 68 7 68 C6.87625 67.195625 6.7525 66.39125 6.625 65.5625 C6.41875 64.716875 6.2125 63.87125 6 63 C5.34 62.67 4.68 62.34 4 62 C4 58.37 4 54.74 4 51 C2.68 51 1.36 51 0 51 C0 49.68 0 48.36 0 47 C0.99 47 1.98 47 3 47 C3.33 43.37 3.66 39.74 4 36 C1.36 36 -1.28 36 -4 36 C-4 32.37 -4 28.74 -4 25 C-2.35 24.67 -0.7 24.34 1 24 C-0.15684329 21.9004467 -0.15684329 21.9004467 -2 20 C-4.62625139 19.66574265 -4.62625139 19.66574265 -7 20 C-7.33 18.68 -7.66 17.36 -8 16 C-9.32 15.67 -10.64 15.34 -12 15 C-12.05422947 13.5629191 -12.09289723 12.12524538 -12.125 10.6875 C-12.14820313 9.88699219 -12.17140625 9.08648437 -12.1953125 8.26171875 C-12 6 -12 6 -10 3 C-7.8359375 2.70703125 -7.8359375 2.70703125 -5.375 2.8125 C-4.55773437 2.83957031 -3.74046875 2.86664063 -2.8984375 2.89453125 C-1.95871094 2.94673828 -1.95871094 2.94673828 -1 3 C-0.67 2.01 -0.34 1.02 0 0 Z M-5 9 C-4.67 9.66 -4.34 10.32 -4 11 C-3.34 11 -2.68 11 -2 11 C-2 11.99 -2 12.98 -2 14 C-0.68 14 0.64 14 2 14 C2 13.34 2 12.68 2 12 C1.01 12 0.02 12 -1 12 C-1 11.01 -1 10.02 -1 9 C-2.32 9 -3.64 9 -5 9 Z M8 9 C9 11 9 11 9 11 Z M12 12 C12 12.99 12 13.98 12 15 C9.69 15 7.38 15 5 15 C5.75150023 18.27773504 5.75150023 18.27773504 9 20 C9 19.34 9 18.68 9 18 C10.32 17.67 11.64 17.34 13 17 C13 15.35 13 13.7 13 12 C12.67 12 12.34 12 12 12 Z " fill="#F6DE76" transform="translate(25,10)"/>
<path d="M0 0 C5.94 0 11.88 0 18 0 C18.495 1.98 18.495 1.98 19 4 C20.98 4 22.96 4 25 4 C25 4.99 25 5.98 25 7 C25.69867188 6.97679687 26.39734375 6.95359375 27.1171875 6.9296875 C28.48230469 6.90261719 28.48230469 6.90261719 29.875 6.875 C31.23238281 6.84019531 31.23238281 6.84019531 32.6171875 6.8046875 C35 7 35 7 37 9 C37.14507695 11.74485593 37.18652423 14.38480543 37.125 17.125 C37.11597656 17.87910156 37.10695312 18.63320313 37.09765625 19.41015625 C37.0740687 21.27357254 37.03819719 23.13682593 37 25 C37.99 25.33 38.98 25.66 40 26 C40 26.66 40 27.32 40 28 C41.32 28.33 42.64 28.66 44 29 C44 31.31 44 33.62 44 36 C43.38125 36.268125 42.7625 36.53625 42.125 36.8125 C39.7004767 37.95556848 39.7004767 37.95556848 38 41 C37.71052049 43.3199715 37.62343999 45.60568395 37.5390625 47.94140625 C37.36117187 48.62074219 37.18328125 49.30007812 37 50 C35.0234375 51.15234375 35.0234375 51.15234375 33 52 C32.505 52.99 32.505 52.99 32 54 C32 52.68 32 51.36 32 50 C32.99 50 33.98 50 35 50 C35 48.02 35 46.04 35 44 C32.69 44 30.38 44 28 44 C28 46.31 28 48.62 28 51 C27.01 51 26.02 51 25 51 C25 47.37 25 43.74 25 40 C22.69 40 20.38 40 18 40 C18 39.01 18 38.02 18 37 C20.31 37 22.62 37 25 37 C25 35.68 25 34.36 25 33 C25.99 33 26.98 33 28 33 C28 35.31 28 37.62 28 40 C30.64 40 33.28 40 36 40 C36 36.37 36 32.74 36 29 C33.36 29 30.72 29 28 29 C28 28.01 28 27.02 28 26 C25.69 26 23.38 26 21 26 C21 26.99 21 27.98 21 29 C20.01 29 19.02 29 18 29 C18 27.68 18 26.36 18 25 C18.99 25 19.98 25 21 25 C21 24.01 21 23.02 21 22 C19.02 22 17.04 22 15 22 C15 19.69 15 17.38 15 15 C10.05 15 5.1 15 0 15 C0 15.99 0 16.98 0 18 C-2.31 18 -4.62 18 -7 18 C-7 17.01 -7 16.02 -7 15 C-9.31 15 -11.62 15 -14 15 C-14 11.37 -14 7.74 -14 4 C-13.01 4.495 -13.01 4.495 -12 5 C-12 5.66 -12 6.32 -12 7 C-10.68 7 -9.36 7 -8 7 C-8 6.01 -8 5.02 -8 4 C-6.865625 3.71125 -5.73125 3.4225 -4.5625 3.125 C-3.386875 2.75375 -2.21125 2.3825 -1 2 C-0.67 1.34 -0.34 0.68 0 0 Z " fill="#745635" transform="translate(57,17)"/>
<path d="M0 0 C1.98 0 3.96 0 6 0 C6 1.32 6 2.64 6 4 C8.31 4 10.62 4 13 4 C13 4.99 13 5.98 13 7 C15.64 7 18.28 7 21 7 C21 8.32 21 9.64 21 11 C22.14597656 10.98839844 23.29195312 10.97679687 24.47265625 10.96484375 C26.00260252 10.95545758 27.53255058 10.94635827 29.0625 10.9375 C29.81466797 10.92912109 30.56683594 10.92074219 31.34179688 10.91210938 C36.00633118 10.89191659 40.39923173 11.22404041 45 12 C45 12.66 45 13.32 45 14 C44.01 14 43.02 14 42 14 C42 17.63 42 21.26 42 25 C38.37 25 34.74 25 31 25 C31 24.01 31 23.02 31 22 C30.01 22 29.02 22 28 22 C28 19.36 28 16.72 28 14 C23.05 14 18.1 14 13 14 C13 16.64 13 19.28 13 22 C14.32 22 15.64 22 17 22 C17 20.68 17 19.36 17 18 C19.31 18 21.62 18 24 18 C24 21.63 24 25.26 24 29 C22.68 29 21.36 29 20 29 C20 32.3 20 35.6 20 39 C19.01 39 18.02 39 17 39 C17 39.99 17 40.98 17 42 C16.01 42 15.02 42 14 42 C14 41.01 14 40.02 14 39 C12.68 39 11.36 39 10 39 C9.87625 38.195625 9.7525 37.39125 9.625 36.5625 C9.41875 35.716875 9.2125 34.87125 9 34 C8.34 33.67 7.68 33.34 7 33 C7 29.37 7 25.74 7 22 C5.68 22 4.36 22 3 22 C3 20.68 3 19.36 3 18 C3.99 18 4.98 18 6 18 C6.33 14.37 6.66 10.74 7 7 C4.69 7 2.38 7 0 7 C0 4.69 0 2.38 0 0 Z " fill="#D9C864" transform="translate(22,39)"/>
<path d="M0 0 C3.63 0 7.26 0 11 0 C11 0.99 11 1.98 11 3 C13.31 3 15.62 3 18 3 C18 4.32 18 5.64 18 7 C20.31 7 22.62 7 25 7 C25 8.32 25 9.64 25 11 C24.01 11 23.02 11 22 11 C22 11.99 22 12.98 22 14 C24.31 14 26.62 14 29 14 C29 14.99 29 15.98 29 17 C31.31 17 33.62 17 36 17 C36 14.03 36 11.06 36 8 C36.33 8 36.66 8 37 8 C37 10.97 37 13.94 37 17 C37.99 17.33 38.98 17.66 40 18 C40 18.66 40 19.32 40 20 C41.32 20.33 42.64 20.66 44 21 C44 23.31 44 25.62 44 28 C43.38125 28.268125 42.7625 28.53625 42.125 28.8125 C39.7004767 29.95556848 39.7004767 29.95556848 38 33 C37.71052049 35.3199715 37.62343999 37.60568395 37.5390625 39.94140625 C37.36117187 40.62074219 37.18328125 41.30007812 37 42 C35.0234375 43.15234375 35.0234375 43.15234375 33 44 C32.505 44.99 32.505 44.99 32 46 C32 44.68 32 43.36 32 42 C32.99 42 33.98 42 35 42 C35 40.02 35 38.04 35 36 C32.69 36 30.38 36 28 36 C28 38.31 28 40.62 28 43 C27.01 43 26.02 43 25 43 C25 39.37 25 35.74 25 32 C22.69 32 20.38 32 18 32 C18 31.01 18 30.02 18 29 C20.31 29 22.62 29 25 29 C25 27.68 25 26.36 25 25 C25.99 25 26.98 25 28 25 C28 27.31 28 29.62 28 32 C30.64 32 33.28 32 36 32 C36 28.37 36 24.74 36 21 C33.36 21 30.72 21 28 21 C28 20.01 28 19.02 28 18 C25.69 18 23.38 18 21 18 C21 18.99 21 19.98 21 21 C20.01 21 19.02 21 18 21 C18 19.68 18 18.36 18 17 C18.99 17 19.98 17 21 17 C21 16.01 21 15.02 21 14 C19.02 14 17.04 14 15 14 C15 11.69 15 9.38 15 7 C12.36 7 9.72 7 7 7 C7 5.68 7 4.36 7 3 C4.69 3 2.38 3 0 3 C0 2.01 0 1.02 0 0 Z " fill="#D5E6EA" transform="translate(57,25)"/>
<path d="M0 0 C2.31 0 4.62 0 7 0 C7.33 0.99 7.66 1.98 8 3 C10.01508358 3.73323796 10.01508358 3.73323796 12 4 C12 4.99 12 5.98 12 7 C12.99 7.33 13.98 7.66 15 8 C16.67578125 9.20703125 16.67578125 9.20703125 18 11 C18.29296875 13.69921875 18.29296875 13.69921875 18.1875 16.6875 C18.16042969 17.68136719 18.13335937 18.67523437 18.10546875 19.69921875 C18.07066406 20.45847656 18.03585938 21.21773437 18 22 C16.68 22 15.36 22 14 22 C14 20.68 14 19.36 14 18 C13.34 17.67 12.68 17.34 12 17 C12 16.34 12 15.68 12 15 C11.1028125 15.2784375 11.1028125 15.2784375 10.1875 15.5625 C8 16 8 16 5 15 C7.05233685 17.2477975 8.00667261 18.0022242 11 19 C10.67 19.99 10.34 20.98 10 22 C9.01 22 8.02 22 7 22 C7 21.01 7 20.02 7 19 C5.68 19 4.36 19 3 19 C3 17.68 3 16.36 3 15 C0.69 15 -1.62 15 -4 15 C-4 13.68 -4 12.36 -4 11 C-4.99 11 -5.98 11 -7 11 C-7 9.68 -7 8.36 -7 7 C-5.02 7 -3.04 7 -1 7 C-1 6.34 -1 5.68 -1 5 C-3.97 5 -6.94 5 -10 5 C-10 8.3 -10 11.6 -10 15 C-9.01 15 -8.02 15 -7 15 C-7 15.99 -7 16.98 -7 18 C-4.69 18 -2.38 18 0 18 C-0.33 19.32 -0.66 20.64 -1 22 C-1.33 21.34 -1.66 20.68 -2 20 C-3.65 20 -5.3 20 -7 20 C-7.33 18.68 -7.66 17.36 -8 16 C-9.32 15.67 -10.64 15.34 -12 15 C-12.05422947 13.5629191 -12.09289723 12.12524538 -12.125 10.6875 C-12.14820313 9.88699219 -12.17140625 9.08648437 -12.1953125 8.26171875 C-12 6 -12 6 -10 3 C-7.8359375 2.70703125 -7.8359375 2.70703125 -5.375 2.8125 C-4.55773437 2.83957031 -3.74046875 2.86664063 -2.8984375 2.89453125 C-1.95871094 2.94673828 -1.95871094 2.94673828 -1 3 C-0.67 2.01 -0.34 1.02 0 0 Z M-5 9 C-4.67 9.66 -4.34 10.32 -4 11 C-3.34 11 -2.68 11 -2 11 C-2 11.99 -2 12.98 -2 14 C-0.68 14 0.64 14 2 14 C2 13.34 2 12.68 2 12 C1.01 12 0.02 12 -1 12 C-1 11.01 -1 10.02 -1 9 C-2.32 9 -3.64 9 -5 9 Z M8 9 C9 11 9 11 9 11 Z " fill="#9DC6D6" transform="translate(25,10)"/>
<path d="M0 0 C2.64 0 5.28 0 8 0 C8 2.31 8 4.62 8 7 C9.98 7 11.96 7 14 7 C14 7.99 14 8.98 14 10 C13.01 10 12.02 10 11 10 C11 11.32 11 12.64 11 14 C11.99 14 12.98 14 14 14 C14 13.01 14 12.02 14 11 C16.31 11 18.62 11 21 11 C21 11.99 21 12.98 21 14 C23.64 14 26.28 14 29 14 C29 17.63 29 21.26 29 25 C26.36 25 23.72 25 21 25 C21 22.69 21 20.38 21 18 C18.36 18 15.72 18 13 18 C13 17.34 13 16.68 13 16 C12.34 16 11.68 16 11 16 C11 16.66 11 17.32 11 18 C8.69 18 6.38 18 4 18 C3.67 15.69 3.34 13.38 3 11 C2.01 11 1.02 11 0 11 C0 11.99 0 12.98 0 14 C-0.99 14 -1.98 14 -3 14 C-3 12.68 -3 11.36 -3 10 C-2.34 10 -1.68 10 -1 10 C-1 9.34 -1 8.68 -1 8 C-2.98 8 -4.96 8 -7 8 C-7 6.68 -7 5.36 -7 4 C-4.69 4 -2.38 4 0 4 C0 4.99 0 5.98 0 7 C1.32 7 2.64 7 4 7 C4 5.68 4 4.36 4 3 C2.68 3 1.36 3 0 3 C0 2.01 0 1.02 0 0 Z " fill="#B9AD7B" transform="translate(64,32)"/>
<path d="M0 0 C1.32 0 2.64 0 4 0 C4 6.93 4 13.86 4 21 C4.99 21 5.98 21 7 21 C7 19.68 7 18.36 7 17 C7.99 17 8.98 17 10 17 C10 12.38 10 7.76 10 3 C11.32 3 12.64 3 14 3 C14 6.63 14 10.26 14 14 C14.99 14 15.98 14 17 14 C17 11.69 17 9.38 17 7 C19.31 7 21.62 7 24 7 C24 8.98 24 10.96 24 13 C23.01 13 22.02 13 21 13 C21 14.65 21 16.3 21 18 C20.01 18 19.02 18 18 18 C18 18.99 18 19.98 18 21 C15.36 21 12.72 21 10 21 C10 22.98 10 24.96 10 27 C9.01 27 8.02 27 7 27 C7 26.01 7 25.02 7 24 C5.68 24 4.36 24 3 24 C3 26.31 3 28.62 3 31 C0.69 31 -1.62 31 -4 31 C-4 30.01 -4 29.02 -4 28 C-2.68 28 -1.36 28 0 28 C0 18.76 0 9.52 0 0 Z " fill="#5C4117" transform="translate(68,54)"/>
<path d="M0 0 C4.95 0 9.9 0 15 0 C15 2.64 15 5.28 15 8 C15.99 8 16.98 8 18 8 C18 14.93 18 21.86 18 29 C14.7 29 11.4 29 8 29 C8 24.38 8 19.76 8 15 C8.99 15 9.98 15 11 15 C11 11.37 11 7.74 11 4 C8.69 4 6.38 4 4 4 C4 5.32 4 6.64 4 8 C2.68 8 1.36 8 0 8 C0 5.36 0 2.72 0 0 Z " fill="#141228" transform="translate(35,53)"/>
<path d="M0 0 C2.35694954 0.09031574 4.71153582 0.24688128 7.0625 0.4375 C8.35285156 0.53933594 9.64320312 0.64117187 10.97265625 0.74609375 C12.47119141 0.87177734 12.47119141 0.87177734 14 1 C14.07142857 8.65178571 14.07142857 8.65178571 13 12 C12.01 12 11.02 12 10 12 C10 13.32 10 14.64 10 16 C10.99 16 11.98 16 13 16 C13.33 21.61 13.66 27.22 14 33 C12.35 32.67 10.7 32.34 9 32 C9 31.34 9 30.68 9 30 C8.01 30 7.02 30 6 30 C6 22.08 6 14.16 6 6 C5.34 6 4.68 6 4 6 C3.67 6.99 3.34 7.98 3 9 C1.68 9 0.36 9 -1 9 C-1.09765625 2.84765625 -1.09765625 2.84765625 -1 1 C-0.67 0.67 -0.34 0.34 0 0 Z " fill="#61503D" transform="translate(15,45)"/>
<path d="M0 0 C1.98 0 3.96 0 6 0 C6 0.99 6 1.98 6 3 C7.21816406 2.98839844 8.43632813 2.97679687 9.69140625 2.96484375 C11.31510262 2.95545822 12.93880067 2.94635884 14.5625 2.9375 C15.76229492 2.92493164 15.76229492 2.92493164 16.98632812 2.91210938 C21.77163104 2.89257753 26.28145051 3.19562982 31 4 C31 4.66 31 5.32 31 6 C30.01 6 29.02 6 28 6 C28 9.63 28 13.26 28 17 C24.37 17 20.74 17 17 17 C17 16.01 17 15.02 17 14 C16.01 14 15.02 14 14 14 C14 11.36 14 8.72 14 6 C10.37 6 6.74 6 3 6 C3 5.01 3 4.02 3 3 C2.01 3 1.02 3 0 3 C0 2.01 0 1.02 0 0 Z " fill="#CFB955" transform="translate(36,47)"/>
<path d="M0 0 C0.33 0 0.66 0 1 0 C1 3.63 1 7.26 1 11 C1.99 11.33 2.98 11.66 4 12 C4 13.65 4 15.3 4 17 C5.32 17 6.64 17 8 17 C8 17.99 8 18.98 8 20 C8.99 20 9.98 20 11 20 C11 19.01 11 18.02 11 17 C11.99 17 12.98 17 14 17 C14 13.7 14 10.4 14 7 C14.33 7 14.66 7 15 7 C15 11.62 15 16.24 15 21 C18.3 21 21.6 21 25 21 C25 15.06 25 9.12 25 3 C26.32 3 27.64 3 29 3 C29 5.31 29 7.62 29 10 C28.01 10 27.02 10 26 10 C26 13.63 26 17.26 26 21 C27.98 21 29.96 21 32 21 C32 21.99 32 22.98 32 24 C31.01 24 30.02 24 29 24 C29 25.65 29 27.3 29 29 C27.68 29 26.36 29 25 29 C25 27.68 25 26.36 25 25 C21.7 25 18.4 25 15 25 C14.67 23.68 14.34 22.36 14 21 C13.21625 21.185625 12.4325 21.37125 11.625 21.5625 C9 22 9 22 7 21 C7 20.01 7 19.02 7 18 C3.7 18 0.4 18 -3 18 C-1.68 17.67 -0.36 17.34 1 17 C0.67 16.01 0.34 15.02 0 14 C-0.06970052 11.60509014 -0.08448003 9.20832309 -0.0625 6.8125 C-0.05347656 5.54019531 -0.04445313 4.26789063 -0.03515625 2.95703125 C-0.02355469 1.98121094 -0.01195312 1.00539062 0 0 Z " fill="#7C6745" transform="translate(28,61)"/>
<path d="M0 0 C0 2.97 0 5.94 0 9 C2.31 9 4.62 9 7 9 C7 10.32 7 11.64 7 13 C4.69 13 2.38 13 0 13 C0 13.99 0 14.98 0 16 C-2.31 16 -4.62 16 -7 16 C-7 15.01 -7 14.02 -7 13 C-9.31 13 -11.62 13 -14 13 C-14 9.37 -14 5.74 -14 2 C-13.01 2.495 -13.01 2.495 -12 3 C-12 3.66 -12 4.32 -12 5 C-10.68 5 -9.36 5 -8 5 C-8 4.01 -8 3.02 -8 2 C-1.125 0 -1.125 0 0 0 Z " fill="#8B9677" transform="translate(57,19)"/>
<path d="M0 0 C5.94 0 11.88 0 18 0 C18.33 1.32 18.66 2.64 19 4 C20.98 4 22.96 4 25 4 C25 4.33 25 4.66 25 5 C23.02 5 21.04 5 19 5 C18.67 6.98 18.34 8.96 18 11 C15.69 11 13.38 11 11 11 C11 10.01 11 9.02 11 8 C7.37 8 3.74 8 0 8 C0 5.36 0 2.72 0 0 Z " fill="#725B3B" transform="translate(57,17)"/>
<path d="M0 0 C1.98 0 3.96 0 6 0 C6 1.32 6 2.64 6 4 C8.31 4 10.62 4 13 4 C13 4.99 13 5.98 13 7 C15.64 7 18.28 7 21 7 C20.67 8.32 20.34 9.64 20 11 C20 10.01 20 9.02 20 8 C18.02 8 16.04 8 14 8 C14 8.99 14 9.98 14 11 C14.99 11 15.98 11 17 11 C17 11.99 17 12.98 17 14 C15.68 14 14.36 14 13 14 C13 16.31 13 18.62 13 21 C12.34 20.67 11.68 20.34 11 20 C11.33 18.35 11.66 16.7 12 15 C10.35 15 8.7 15 7 15 C6.67 15.99 6.34 16.98 6 18 C6.33 14.37 6.66 10.74 7 7 C4.69 7 2.38 7 0 7 C0 4.69 0 2.38 0 0 Z " fill="#E2C851" transform="translate(22,39)"/>
<path d="M0 0 C0.33 0.99 0.66 1.98 1 3 C2.32 3 3.64 3 5 3 C5 4.32 5 5.64 5 7 C3.68 7 2.36 7 1 7 C1 7.99 1 8.98 1 10 C2.32 10 3.64 10 5 10 C5.66 11.98 6.32 13.96 7 16 C8.65 16.33 10.3 16.66 12 17 C11.67 18.32 11.34 19.64 11 21 C10.01 21 9.02 21 8 21 C8 20.01 8 19.02 8 18 C6.68 18 5.36 18 4 18 C4 16.68 4 15.36 4 14 C1.69 14 -0.62 14 -3 14 C-3 12.68 -3 11.36 -3 10 C-3.99 10 -4.98 10 -6 10 C-6 8.68 -6 7.36 -6 6 C-4.02 6 -2.04 6 0 6 C0 5.34 0 4.68 0 4 C-2.97 4 -5.94 4 -9 4 C-9 7.3 -9 10.6 -9 14 C-8.01 14 -7.02 14 -6 14 C-6 14.99 -6 15.98 -6 17 C-3.69 17 -1.38 17 1 17 C0.67 18.32 0.34 19.64 0 21 C-0.33 20.34 -0.66 19.68 -1 19 C-2.65 19 -4.3 19 -6 19 C-6.33 17.68 -6.66 16.36 -7 15 C-8.32 14.67 -9.64 14.34 -11 14 C-11.05422947 12.5629191 -11.09289723 11.12524538 -11.125 9.6875 C-11.14820313 8.88699219 -11.17140625 8.08648437 -11.1953125 7.26171875 C-11 5 -11 5 -9 2 C-6.8359375 1.70703125 -6.8359375 1.70703125 -4.375 1.8125 C-3.55773437 1.83957031 -2.74046875 1.86664063 -1.8984375 1.89453125 C-0.95871094 1.94673828 -0.95871094 1.94673828 0 2 C0 1.34 0 0.68 0 0 Z M-4 8 C-3.67 8.66 -3.34 9.32 -3 10 C-2.34 10 -1.68 10 -1 10 C-1 10.99 -1 11.98 -1 13 C0.32 13 1.64 13 3 13 C3 12.34 3 11.68 3 11 C2.01 11 1.02 11 0 11 C0 10.01 0 9.02 0 8 C-1.32 8 -2.64 8 -4 8 Z " fill="#78B5C8" transform="translate(24,11)"/>
<path d="M0 0 C3.63 0 7.26 0 11 0 C11 0.99 11 1.98 11 3 C13.31 3 15.62 3 18 3 C18 4.32 18 5.64 18 7 C20.31 7 22.62 7 25 7 C25 8.32 25 9.64 25 11 C24.01 11 23.02 11 22 11 C22 11.99 22 12.98 22 14 C19.69 14 17.38 14 15 14 C15 11.69 15 9.38 15 7 C12.36 7 9.72 7 7 7 C7 5.68 7 4.36 7 3 C4.69 3 2.38 3 0 3 C0 2.01 0 1.02 0 0 Z " fill="#F3DC75" transform="translate(57,25)"/>
<path d="M0 0 C0.99 0 1.98 0 3 0 C3 2.31 3 4.62 3 7 C5.97 7 8.94 7 12 7 C12 10.3 12 13.6 12 17 C10.02 17.99 10.02 17.99 8 19 C7.67 19.66 7.34 20.32 7 21 C7 19.68 7 18.36 7 17 C7.99 17 8.98 17 10 17 C10 15.02 10 13.04 10 11 C7.69 11 5.38 11 3 11 C3 13.31 3 15.62 3 18 C2.01 18 1.02 18 0 18 C0 14.37 0 10.74 0 7 C-2.31 7 -4.62 7 -7 7 C-7 6.01 -7 5.02 -7 4 C-4.69 4 -2.38 4 0 4 C0 2.68 0 1.36 0 0 Z " fill="#818865" transform="translate(82,50)"/>
<path d="M0 0 C2.31 0 4.62 0 7 0 C7 5.94 7 11.88 7 18 C6.01 18 5.02 18 4 18 C3.67 15.69 3.34 13.38 3 11 C2.01 11 1.02 11 0 11 C0 11.99 0 12.98 0 14 C-0.99 14 -1.98 14 -3 14 C-3 12.68 -3 11.36 -3 10 C-2.34 10 -1.68 10 -1 10 C-1 9.34 -1 8.68 -1 8 C-2.98 8 -4.96 8 -7 8 C-7 6.68 -7 5.36 -7 4 C-4.69 4 -2.38 4 0 4 C0 4.99 0 5.98 0 7 C1.32 7 2.64 7 4 7 C4 5.68 4 4.36 4 3 C2.68 3 1.36 3 0 3 C0 2.01 0 1.02 0 0 Z " fill="#4E361B" transform="translate(64,32)"/>
<path d="M0 0 C4.95 0 9.9 0 15 0 C15 2.64 15 5.28 15 8 C15.99 8 16.98 8 18 8 C18 8.99 18 9.98 18 11 C16.02 11 14.04 11 12 11 C11.67 12.32 11.34 13.64 11 15 C11 11.37 11 7.74 11 4 C8.69 4 6.38 4 4 4 C4 5.32 4 6.64 4 8 C2.68 8 1.36 8 0 8 C0 5.36 0 2.72 0 0 Z " fill="#6E602E" transform="translate(35,53)"/>
<path d="M0 0 C2.97 0 5.94 0 9 0 C9 0.66 9 1.32 9 2 C7.02 2 5.04 2 3 2 C3 3.32 3 4.64 3 6 C3.99 6 4.98 6 6 6 C6 7.32 6 8.64 6 10 C8.31 10 10.62 10 13 10 C13 11.32 13 12.64 13 14 C14.32 14 15.64 14 17 14 C17 14.99 17 15.98 17 17 C14.69 17 12.38 17 10 17 C10 15.68 10 14.36 10 13 C7.69 13 5.38 13 3 13 C3 12.01 3 11.02 3 10 C2.01 10 1.02 10 0 10 C0 6.7 0 3.4 0 0 Z " fill="#F0F5F6" transform="translate(15,15)"/>
<path d="M0 0 C0.99 0 1.98 0 3 0 C3 1.32 3 2.64 3 4 C4.32 4 5.64 4 7 4 C7 5.32 7 6.64 7 8 C5.68 8 4.36 8 3 8 C3 8.99 3 9.98 3 11 C2.01 11 1.02 11 0 11 C0 10.01 0 9.02 0 8 C-0.639375 8.185625 -1.27875 8.37125 -1.9375 8.5625 C-6.13212496 9.16173214 -9.80228496 8.56387217 -14 8 C-14 11.3 -14 14.6 -14 18 C-14.33 18 -14.66 18 -15 18 C-15 14.37 -15 10.74 -15 7 C-13.35 6.67 -11.7 6.34 -10 6 C-10.33 5.34 -10.66 4.68 -11 4 C-7.7 4 -4.4 4 -1 4 C-0.67 2.68 -0.34 1.36 0 0 Z " fill="#CFCF8B" transform="translate(36,28)"/>
<path d="M0 0 C0.99 0 1.98 0 3 0 C3 10.23 3 20.46 3 31 C0.69 31 -1.62 31 -4 31 C-4 30.01 -4 29.02 -4 28 C-2.68 28 -1.36 28 0 28 C0 18.76 0 9.52 0 0 Z " fill="#31210B" transform="translate(68,54)"/>
<path d="M0 0 C2.35694954 0.09031574 4.71153582 0.24688128 7.0625 0.4375 C8.35285156 0.53933594 9.64320312 0.64117187 10.97265625 0.74609375 C12.47119141 0.87177734 12.47119141 0.87177734 14 1 C14 3.31 14 5.62 14 8 C12.68 8 11.36 8 10 8 C10 7.01 10 6.02 10 5 C7.69 5 5.38 5 3 5 C3 6.32 3 7.64 3 9 C1.68 9 0.36 9 -1 9 C-1.09765625 2.84765625 -1.09765625 2.84765625 -1 1 C-0.67 0.67 -0.34 0.34 0 0 Z " fill="#242C26" transform="translate(15,45)"/>
<path d="M0 0 C1.32 0 2.64 0 4 0 C4 0.99 4 1.98 4 3 C8.62 3 13.24 3 18 3 C18 4.32 18 5.64 18 7 C15.69 7 13.38 7 11 7 C11 7.99 11 8.98 11 10 C8.69 10 6.38 10 4 10 C4 8.02 4 6.04 4 4 C2.68 4 1.36 4 0 4 C0 2.68 0 1.36 0 0 Z " fill="#C4A74A" transform="translate(46,25)"/>
<path d="M0 0 C2.31 0 4.62 0 7 0 C7.33 0.99 7.66 1.98 8 3 C8.66 3 9.32 3 10 3 C10 4.65 10 6.3 10 8 C9.01 8 8.02 8 7 8 C7 9.32 7 10.64 7 12 C7.99 12 8.98 12 10 12 C10 12.66 10 13.32 10 14 C8.02 14 6.04 14 4 14 C4 13.01 4 12.02 4 11 C2.68 11 1.36 11 0 11 C0 10.01 0 9.02 0 8 C1.32 8 2.64 8 4 8 C4 6.68 4 5.36 4 4 C2.68 4 1.36 4 0 4 C0 2.68 0 1.36 0 0 Z " fill="#E3EEF1" transform="translate(25,10)"/>
<path d="M0 0 C0 4.29 0 8.58 0 13 C-0.99 13 -1.98 13 -3 13 C-3 14.32 -3 15.64 -3 17 C-3.99 17 -4.98 17 -6 17 C-6 11.72 -6 6.44 -6 1 C-4 0 -4 0 0 0 Z " fill="#A9953E" transform="translate(78,58)"/>
<path d="M0 0 C4.62 0 9.24 0 14 0 C14 0.99 14 1.98 14 3 C14.99 3 15.98 3 17 3 C17 3.99 17 4.98 17 6 C16.01 6.495 16.01 6.495 15 7 C14.01 8.485 14.01 8.485 13 10 C13 9.01 13 8.02 13 7 C10.69 7 8.38 7 6 7 C6 5.68 6 4.36 6 3 C4.02 3 2.04 3 0 3 C0 2.01 0 1.02 0 0 Z " fill="#ECD25E" transform="translate(22,36)"/>
<path d="M0 0 C1.32 0 2.64 0 4 0 C4 2.31 4 4.62 4 7 C4.99 7 5.98 7 7 7 C7 5.68 7 4.36 7 3 C7.99 3 8.98 3 10 3 C10 5.31 10 7.62 10 10 C9.01 10 8.02 10 7 10 C7 10.99 7 11.98 7 13 C6.01 13 5.02 13 4 13 C4 12.01 4 11.02 4 10 C2.68 10 1.36 10 0 10 C-0.12375 9.21625 -0.2475 8.4325 -0.375 7.625 C-0.79117993 4.85942178 -0.79117993 4.85942178 -3 3 C-2.01 3 -1.02 3 0 3 C0 2.01 0 1.02 0 0 Z " fill="#D09F34" transform="translate(32,68)"/>
<path d="M0 0 C0.33 0 0.66 0 1 0 C1 3.63 1 7.26 1 11 C1.99 11.33 2.98 11.66 4 12 C4 13.65 4 15.3 4 17 C5.32 17 6.64 17 8 17 C8 17.99 8 18.98 8 20 C8.99 20 9.98 20 11 20 C11 19.01 11 18.02 11 17 C11.99 17 12.98 17 14 17 C14 13.7 14 10.4 14 7 C14.33 7 14.66 7 15 7 C15 11.62 15 16.24 15 21 C9 22 9 22 7 21 C7 20.01 7 19.02 7 18 C3.7 18 0.4 18 -3 18 C-1.68 17.67 -0.36 17.34 1 17 C0.67 16.01 0.34 15.02 0 14 C-0.06970052 11.60509014 -0.08448003 9.20832309 -0.0625 6.8125 C-0.05347656 5.54019531 -0.04445313 4.26789063 -0.03515625 2.95703125 C-0.02355469 1.98121094 -0.01195312 1.00539062 0 0 Z " fill="#93804C" transform="translate(28,61)"/>
<path d="M0 0 C0 3.3 0 6.6 0 10 C-2.31 10 -4.62 10 -7 10 C-7.12375 9.030625 -7.2475 8.06125 -7.375 7.0625 C-7.58125 6.051875 -7.7875 5.04125 -8 4 C-8.66 3.67 -9.32 3.34 -10 3 C-10 2.34 -10 1.68 -10 1 C-6.61981469 -0.04005702 -3.5219721 -0.08004482 0 0 Z " fill="#2D2313" transform="translate(93,32)"/>
<path d="M0 0 C0.99 0 1.98 0 3 0 C3 1.32 3 2.64 3 4 C3.99 4 4.98 4 6 4 C6 7.3 6 10.6 6 14 C4.02 14 2.04 14 0 14 C0 9.38 0 4.76 0 0 Z " fill="#131329" transform="translate(22,57)"/>
<path d="M0 0 C1.65 0.33 3.3 0.66 5 1 C4.67 2.98 4.34 4.96 4 7 C0.7 7.33 -2.6 7.66 -6 8 C-6 8.66 -6 9.32 -6 10 C-5.01 10.33 -4.02 10.66 -3 11 C-3 11.99 -3 12.98 -3 14 C-5.31 14 -7.62 14 -10 14 C-10 13.01 -10 12.02 -10 11 C-9.01 11 -8.02 11 -7 11 C-7 9.68 -7 8.36 -7 7 C-5.68 7 -4.36 7 -3 7 C-3 6.01 -3 5.02 -3 4 C-2.01 4 -1.02 4 0 4 C0 2.68 0 1.36 0 0 Z " fill="#525036" transform="translate(89,25)"/>
<path d="M0 0 C0.99 0 1.98 0 3 0 C3.33 2.31 3.66 4.62 4 7 C6.31 7 8.62 7 11 7 C11 7.99 11 8.98 11 10 C8.36 10 5.72 10 3 10 C3 9.34 3 8.68 3 8 C0.69 8 -1.62 8 -4 8 C-3.67 6.35 -3.34 4.7 -3 3 C-2.01 3 -1.02 3 0 3 C0 2.01 0 1.02 0 0 Z " fill="#DAC980" transform="translate(64,43)"/>
<path d="M0 0 C0.33 0 0.66 0 1 0 C1 2.97 1 5.94 1 9 C1.66 9.33 2.32 9.66 3 10 C-0.3 10 -3.6 10 -7 10 C-7.33 10.99 -7.66 11.98 -8 13 C-8 12.01 -8 11.02 -8 10 C-10.31 10 -12.62 10 -15 10 C-15 10.99 -15 11.98 -15 13 C-15.99 13 -16.98 13 -18 13 C-18 11.68 -18 10.36 -18 9 C-17.01 9 -16.02 9 -15 9 C-15 8.01 -15 7.02 -15 6 C-12.36 6 -9.72 6 -7 6 C-7 6.99 -7 7.98 -7 9 C-4.69 9 -2.38 9 0 9 C0 6.03 0 3.06 0 0 Z " fill="#B0CDC2" transform="translate(93,33)"/>
<path d="M0 0 C1.98 0 3.96 0 6 0 C6 3.3 6 6.6 6 10 C4.02 10 2.04 10 0 10 C0 6.7 0 3.4 0 0 Z " fill="#2E2010" transform="translate(86,47)"/>
<path d="M0 0 C1.98 0 3.96 0 6 0 C6 0.99 6 1.98 6 3 C8.64 3 11.28 3 14 3 C14 6.63 14 10.26 14 14 C13.67 14 13.34 14 13 14 C13 10.7 13 7.4 13 4 C11.02 4 9.04 4 7 4 C7 7.3 7 10.6 7 14 C6.67 14 6.34 14 6 14 C6 11.69 6 9.38 6 7 C5.01 7 4.02 7 3 7 C3 5.68 3 4.36 3 3 C2.01 3 1.02 3 0 3 C0 2.01 0 1.02 0 0 Z " fill="#827853" transform="translate(79,43)"/>
<path d="M0 0 C3.63 0 7.26 0 11 0 C11 0.99 11 1.98 11 3 C13.31 3 15.62 3 18 3 C17.67 4.32 17.34 5.64 17 7 C17 6.01 17 5.02 17 4 C14.69 4 12.38 4 10 4 C10.33 4.99 10.66 5.98 11 7 C9.68 7 8.36 7 7 7 C7 5.68 7 4.36 7 3 C4.69 3 2.38 3 0 3 C0 2.01 0 1.02 0 0 Z " fill="#DABF53" transform="translate(57,25)"/>
<path d="M0 0 C2.31 0 4.62 0 7 0 C7 0.99 7 1.98 7 3 C8.32 3.33 9.64 3.66 11 4 C10.01 4 9.02 4 8 4 C8 4.66 8 5.32 8 6 C8.99 6 9.98 6 11 6 C10.67 7.32 10.34 8.64 10 10 C10 9.01 10 8.02 10 7 C9.01 7 8.02 7 7 7 C7 7.99 7 8.98 7 10 C6.01 10 5.02 10 4 10 C4 8.68 4 7.36 4 6 C4.66 6 5.32 6 6 6 C6 5.34 6 4.68 6 4 C4.02 4 2.04 4 0 4 C0 2.68 0 1.36 0 0 Z " fill="#A8873B" transform="translate(57,36)"/>
<path d="M0 0 C4.29 0 8.58 0 13 0 C13 1.98 13 3.96 13 6 C12.34 6 11.68 6 11 6 C11 5.01 11 4.02 11 3 C8.36 3 5.72 3 3 3 C3 3.99 3 4.98 3 6 C2.01 6 1.02 6 0 6 C0 4.02 0 2.04 0 0 Z " fill="#0E0C08" transform="translate(36,54)"/>
<path d="M0 0 C2.31 0 4.62 0 7 0 C7 0.33 7 0.66 7 1 C5.02 1 3.04 1 1 1 C1 2.98 1 4.96 1 7 C-1.07553648 7.5534764 -2.84365964 8 -5 8 C-5.33 8.99 -5.66 9.98 -6 11 C-7.45823212 11.0270043 -8.91660675 11.04639787 -10.375 11.0625 C-11.18710938 11.07410156 -11.99921875 11.08570312 -12.8359375 11.09765625 C-15 11 -15 11 -17 10 C-17 9.01 -17 8.02 -17 7 C-16.01 7 -15.02 7 -14 7 C-14 7.99 -14 8.98 -14 10 C-11.69 10 -9.38 10 -7 10 C-7 7.69 -7 5.38 -7 3 C-5.68 3 -4.36 3 -3 3 C-3 3.99 -3 4.98 -3 6 C-2.01 6 -1.02 6 0 6 C0 4.02 0 2.04 0 0 Z " fill="#517C8A" transform="translate(78,75)"/>
<path d="M0 0 C0.66 0 1.32 0 2 0 C2 0.66 2 1.32 2 2 C3.65 2 5.3 2 7 2 C7 3.32 7 4.64 7 6 C4.69 6 2.38 6 0 6 C0 6.99 0 7.98 0 9 C0.99 9.33 1.98 9.66 3 10 C1.02 10.33 -0.96 10.66 -3 11 C-3.33 9.02 -3.66 7.04 -4 5 C-2.68 5 -1.36 5 0 5 C0 3.35 0 1.7 0 0 Z " fill="#B6A96E" transform="translate(75,48)"/>
<path d="M0 0 C2.97 0 5.94 0 9 0 C9 0.66 9 1.32 9 2 C8.34 2 7.68 2 7 2 C6.67 4.64 6.34 7.28 6 10 C3.03 10 0.06 10 -3 10 C-3 9.67 -3 9.34 -3 9 C-1.02 9 0.96 9 3 9 C3 6.69 3 4.38 3 2 C2.01 2 1.02 2 0 2 C0 1.34 0 0.68 0 0 Z " fill="#EFD457" transform="translate(54,40)"/>
<path d="M0 0 C1.98 0 3.96 0 6 0 C6 0.99 6 1.98 6 3 C8.64 3 11.28 3 14 3 C14 3.99 14 4.98 14 6 C10.37 6 6.74 6 3 6 C3 5.01 3 4.02 3 3 C2.01 3 1.02 3 0 3 C0 2.01 0 1.02 0 0 Z " fill="#CAB13E" transform="translate(36,47)"/>
<path d="M0 0 C2.31 0 4.62 0 7 0 C7 0.99 7 1.98 7 3 C8.32 3 9.64 3 11 3 C11 4.32 11 5.64 11 7 C9.68 7 8.36 7 7 7 C7 6.01 7 5.02 7 4 C2.38 4 -2.24 4 -7 4 C-7 3.67 -7 3.34 -7 3 C-4.69 3 -2.38 3 0 3 C0 2.01 0 1.02 0 0 Z " fill="#C3A54A" transform="translate(57,32)"/>
<path d="M0 0 C2.31 0 4.62 0 7 0 C7 2.31 7 4.62 7 7 C4.69 7 2.38 7 0 7 C0 4.69 0 2.38 0 0 Z " fill="#9A7628" transform="translate(57,64)"/>
<path d="M0 0 C1.98 0 3.96 0 6 0 C6 1.98 6 3.96 6 6 C5.01 6 4.02 6 3 6 C3 7.32 3 8.64 3 10 C2.01 10 1.02 10 0 10 C0 6.7 0 3.4 0 0 Z " fill="#2C1F0E" transform="translate(86,61)"/>
<path d="M0 0 C0.33 0 0.66 0 1 0 C1 9.24 1 18.48 1 28 C-1.31 28 -3.62 28 -6 28 C-6 27.01 -6 26.02 -6 25 C-4.02 25 -2.04 25 0 25 C0 16.75 0 8.5 0 0 Z " fill="#816E2F" transform="translate(67,54)"/>
<path d="M0 0 C0.99 0 1.98 0 3 0 C3 4.95 3 9.9 3 15 C2.01 15 1.02 15 0 15 C0 10.05 0 5.1 0 0 Z " fill="#302009" transform="translate(79,58)"/>
<path d="M0 0 C2.31 0 4.62 0 7 0 C7 0.99 7 1.98 7 3 C7.99 3 8.98 3 10 3 C10 4.32 10 5.64 10 7 C7.69 7 5.38 7 3 7 C3 5.02 3 3.04 3 1 C2.34 1 1.68 1 1 1 C0.67 1.66 0.34 2.32 0 3 C0 2.01 0 1.02 0 0 Z " fill="#90926B" transform="translate(18,50)"/>
<path d="M0 0 C0.99 0 1.98 0 3 0 C3 2.31 3 4.62 3 7 C-0.3 7 -3.6 7 -7 7 C-7 6.01 -7 5.02 -7 4 C-4.69 4 -2.38 4 0 4 C0 2.68 0 1.36 0 0 Z " fill="#EEEBE4" transform="translate(82,50)"/>
<path d="M0 0 C1.98 0 3.96 0 6 0 C6 2.31 6 4.62 6 7 C4.02 7 2.04 7 0 7 C0 4.69 0 2.38 0 0 Z " fill="#D9C738" transform="translate(22,39)"/>
<path d="M0 0 C0.33 0 0.66 0 1 0 C1 2.31 1 4.62 1 7 C2.98 7 4.96 7 7 7 C7 7.99 7 8.98 7 10 C6.01 10 5.02 10 4 10 C4 11.32 4 12.64 4 14 C3.01 14 2.02 14 1 14 C-0.04976964 10.85069107 -0.10131595 8.61185544 -0.0625 5.3125 C-0.05347656 4.31863281 -0.04445313 3.32476562 -0.03515625 2.30078125 C-0.02355469 1.54152344 -0.01195313 0.78226563 0 0 Z " fill="#D1BD63" transform="translate(71,32)"/>
<path d="M0 0 C2.31 0 4.62 0 7 0 C7 1.98 7 3.96 7 6 C2.25 5.125 2.25 5.125 0 4 C0 2.68 0 1.36 0 0 Z " fill="#DAC050" transform="translate(39,57)"/>
<path d="M0 0 C0.99 0 1.98 0 3 0 C3 3.3 3 6.6 3 10 C1.68 10 0.36 10 -1 10 C-1 9.01 -1 8.02 -1 7 C-1.99 6.67 -2.98 6.34 -4 6 C-2.68 6 -1.36 6 0 6 C0 4.02 0 2.04 0 0 Z " fill="#AE963F" transform="translate(54,54)"/>
<path d="M0 0 C0.99 0 1.98 0 3 0 C4.1577506 3.47325181 4.06866652 6.36067448 4 10 C2.68 10 1.36 10 0 10 C0 6.7 0 3.4 0 0 Z " fill="#EBEAE5" transform="translate(39,22)"/>
<path d="M0 0 C4.29 0 8.58 0 13 0 C13 1.32 13 2.64 13 4 C9.37 4 5.74 4 2 4 C2 3.67 2 3.34 2 3 C3.98 3 5.96 3 8 3 C8 2.34 8 1.68 8 1 C5.36 1 2.72 1 0 1 C0 0.67 0 0.34 0 0 Z " fill="#AECCDB" transform="translate(16,14)"/>
<path d="M0 0 C0.99 0 1.98 0 3 0 C3 2.31 3 4.62 3 7 C0.69 7 -1.62 7 -4 7 C-4 6.01 -4 5.02 -4 4 C-2.68 4 -1.36 4 0 4 C0 2.68 0 1.36 0 0 Z " fill="#3C2514" transform="translate(68,78)"/>
<path d="M0 0 C0.33 0 0.66 0 1 0 C1 3.3 1 6.6 1 10 C1.99 10.33 2.98 10.66 4 11 C3.01 11 2.02 11 1 11 C1 11.99 1 12.98 1 14 C-1.64 14 -4.28 14 -7 14 C-7 13.67 -7 13.34 -7 13 C-4.69 13 -2.38 13 0 13 C0 12.01 0 11.02 0 10 C-0.99 10 -1.98 10 -3 10 C-3 9.01 -3 8.02 -3 7 C-2.01 7 -1.02 7 0 7 C0 4.69 0 2.38 0 0 Z " fill="#5E4F31" transform="translate(85,61)"/>
<path d="M0 0 C0.33 0 0.66 0 1 0 C1 6.93 1 13.86 1 21 C1.99 21 2.98 21 4 21 C4 21.99 4 22.98 4 24 C2.68 24 1.36 24 0 24 C0 16.08 0 8.16 0 0 Z " fill="#816427" transform="translate(71,54)"/>
<path d="M0 0 C0.99 0 1.98 0 3 0 C3.33 2.64 3.66 5.28 4 8 C2.68 8 1.36 8 0 8 C-0.33 8.99 -0.66 9.98 -1 11 C-0.67 7.37 -0.34 3.74 0 0 Z " fill="#D7C03E" transform="translate(29,46)"/>
<path d="M0 0 C0.99 0 1.98 0 3 0 C3 1.32 3 2.64 3 4 C4.32 4 5.64 4 7 4 C7 4.99 7 5.98 7 7 C4.69 7 2.38 7 0 7 C0 4.69 0 2.38 0 0 Z " fill="#815C31" transform="translate(43,25)"/>
<path d="M0 0 C0 1.32 0 2.64 0 4 C-0.99 4 -1.98 4 -3 4 C-3.33 4.99 -3.66 5.98 -4 7 C-4 5.68 -4 4.36 -4 3 C-5.65 3 -7.3 3 -9 3 C-9 2.34 -9 1.68 -9 1 C-6.04335481 -0.4783226 -3.25770263 -0.06032783 0 0 Z " fill="#DAC258" transform="translate(82,32)"/>
<path d="M0 0 C2.97 0 5.94 0 9 0 C9 0.66 9 1.32 9 2 C7.02 2.33 5.04 2.66 3 3 C2.34 4.98 1.68 6.96 1 9 C0.67 9 0.34 9 0 9 C0 6.03 0 3.06 0 0 Z " fill="#FBFCFC" transform="translate(15,15)"/>
<path d="M0 0 C2.31 0 4.62 0 7 0 C7 1.32 7 2.64 7 4 C6.01 4 5.02 4 4 4 C4 4.66 4 5.32 4 6 C4.99 6.33 5.98 6.66 7 7 C5.68 7 4.36 7 3 7 C3 5.68 3 4.36 3 3 C2.01 3 1.02 3 0 3 C0 2.01 0 1.02 0 0 Z " fill="#F3DA67" transform="translate(50,36)"/>
<path d="M0 0 C1.98 0 3.96 0 6 0 C6 0.99 6 1.98 6 3 C5.01 3 4.02 3 3 3 C3 4.32 3 5.64 3 7 C2.01 7 1.02 7 0 7 C0 4.69 0 2.38 0 0 Z " fill="#6B4315" transform="translate(54,82)"/>
<path d="M0 0 C0.99 0 1.98 0 3 0 C3 3.3 3 6.6 3 10 C2.01 10 1.02 10 0 10 C0 6.7 0 3.4 0 0 Z " fill="#DEC552" transform="translate(50,50)"/>
<path d="M0 0 C2.31 0 4.62 0 7 0 C7 3.3 7 6.6 7 10 C6.67 10 6.34 10 6 10 C6 8.02 6 6.04 6 4 C3.03 3.505 3.03 3.505 0 3 C0 2.01 0 1.02 0 0 Z " fill="#7D592C" transform="translate(64,32)"/>
<path d="M0 0 C1.32 0 2.64 0 4 0 C4 0.99 4 1.98 4 3 C4.99 3 5.98 3 7 3 C7 3.99 7 4.98 7 6 C5.02 6 3.04 6 1 6 C0.67 4.02 0.34 2.04 0 0 Z " fill="#634220" transform="translate(57,18)"/>
<path d="M0 0 C1.32 0 2.64 0 4 0 C4 2.31 4 4.62 4 7 C2.68 7 1.36 7 0 7 C0 4.69 0 2.38 0 0 Z " fill="#784A13" transform="translate(53,64)"/>
<path d="M0 0 C1.32 0 2.64 0 4 0 C4 1.32 4 2.64 4 4 C2.68 4 1.36 4 0 4 C0 4.99 0 5.98 0 7 C-0.99 7 -1.98 7 -3 7 C-3 5.68 -3 4.36 -3 3 C-2.01 3 -1.02 3 0 3 C0 2.01 0 1.02 0 0 Z " fill="#98743A" transform="translate(39,32)"/>
<path d="M0 0 C0.99 0 1.98 0 3 0 C3 0.99 3 1.98 3 3 C4.32 3.33 5.64 3.66 7 4 C6.01 4.33 5.02 4.66 4 5 C2.33289654 6.49985609 2.33289654 6.49985609 1 8 C0 7 0 7 -0.0625 3.4375 C-0.041875 2.303125 -0.02125 1.16875 0 0 Z " fill="#A0CAD7" transform="translate(93,50)"/>
<path d="M0 0 C0.33 0 0.66 0 1 0 C1 4.62 1 9.24 1 14 C-0.32 14 -1.64 14 -3 14 C-3 12.68 -3 11.36 -3 10 C-2.01 10 -1.02 10 0 10 C0 6.7 0 3.4 0 0 Z " fill="#996F31" transform="translate(42,68)"/>
<path d="M0 0 C1.65 0 3.3 0 5 0 C5 0.99 5 1.98 5 3 C4.01 3 3.02 3 2 3 C2 3.99 2 4.98 2 6 C3.98 6 5.96 6 8 6 C8 6.33 8 6.66 8 7 C5.69 7 3.38 7 1 7 C1 5.68 1 4.36 1 3 C0.34 2.67 -0.32 2.34 -1 2 C-0.67 1.34 -0.34 0.68 0 0 Z " fill="#F2D966" transform="translate(42,43)"/>
<path d="M0 0 C0.99 0.33 1.98 0.66 3 1 C3 1.66 3 2.32 3 3 C3.99 3 4.98 3 6 3 C6 3.99 6 4.98 6 6 C4.02 6 2.04 6 0 6 C0 4.02 0 2.04 0 0 Z " fill="#F7E076" transform="translate(29,36)"/>
<path d="M0 0 C0.66 0 1.32 0 2 0 C2 0.66 2 1.32 2 2 C3.65 2 5.3 2 7 2 C7 2.99 7 3.98 7 5 C4.69 5 2.38 5 0 5 C0 3.35 0 1.7 0 0 Z " fill="#7D6D3B" transform="translate(75,48)"/>
<path d="M0 0 C2.31 0 4.62 0 7 0 C7 2.31 7 4.62 7 7 C6.67 5.68 6.34 4.36 6 3 C4.02 3 2.04 3 0 3 C0 2.01 0 1.02 0 0 Z " fill="#F0DA65" transform="translate(22,36)"/>
<path d="M0 0 C2.64 0 5.28 0 8 0 C8 0.99 8 1.98 8 3 C5.36 3 2.72 3 0 3 C0 2.01 0 1.02 0 0 Z " fill="#E3E6E0" transform="translate(85,57)"/>
<path d="M0 0 C0.33 1.32 0.66 2.64 1 4 C-1.31 4 -3.62 4 -6 4 C-6 3.01 -6 2.02 -6 1 C-4.02 0.67 -2.04 0.34 0 0 Z " fill="#7D4D13" transform="translate(67,78)"/>
<path d="M0 0 C0 1.32 0 2.64 0 4 C-1.98 4 -3.96 4 -6 4 C-6 3.01 -6 2.02 -6 1 C-3 0 -3 0 0 0 Z " fill="#8E5D2C" transform="translate(28,53)"/>
<path d="M0 0 C2.31 0 4.62 0 7 0 C7 0.99 7 1.98 7 3 C4.69 3 2.38 3 0 3 C0 2.01 0 1.02 0 0 Z " fill="#F2EFE7" transform="translate(68,50)"/>
<path d="M0 0 C2.31 0 4.62 0 7 0 C7 0.99 7 1.98 7 3 C4.69 3 2.38 3 0 3 C0 2.01 0 1.02 0 0 Z " fill="#F7F3DE" transform="translate(60,47)"/>
<path d="M0 0 C2.31 0 4.62 0 7 0 C7 0.99 7 1.98 7 3 C4.69 3 2.38 3 0 3 C0 2.01 0 1.02 0 0 Z " fill="#845E2C" transform="translate(57,36)"/>
<path d="M0 0 C2.31 0 4.62 0 7 0 C7 0.99 7 1.98 7 3 C4.69 3 2.38 3 0 3 C0 2.01 0 1.02 0 0 Z " fill="#70602E" transform="translate(79,36)"/>
<path d="M0 0 C2.31 0 4.62 0 7 0 C7 0.99 7 1.98 7 3 C4.69 3 2.38 3 0 3 C0 2.01 0 1.02 0 0 Z " fill="#EBD36D" transform="translate(57,32)"/>
<path d="M0 0 C2.31 0 4.62 0 7 0 C7 0.99 7 1.98 7 3 C4.69 3 2.38 3 0 3 C0 2.01 0 1.02 0 0 Z " fill="#845D2B" transform="translate(50,32)"/>
<path d="M0 0 C2.31 0 4.62 0 7 0 C7 0.99 7 1.98 7 3 C4.69 3 2.38 3 0 3 C0 2.01 0 1.02 0 0 Z " fill="#EBCE55" transform="translate(50,29)"/>
<path d="M0 0 C2.31 0 4.62 0 7 0 C7 0.99 7 1.98 7 3 C4.69 3 2.38 3 0 3 C0 2.01 0 1.02 0 0 Z " fill="#785526" transform="translate(57,29)"/>
<path d="M0 0 C2.31 0 4.62 0 7 0 C7 0.99 7 1.98 7 3 C4.69 3 2.38 3 0 3 C0 2.01 0 1.02 0 0 Z " fill="#EDD66D" transform="translate(57,25)"/>
<path d="M0 0 C2.31 0 4.62 0 7 0 C7 0.99 7 1.98 7 3 C4.69 3 2.38 3 0 3 C0 2.01 0 1.02 0 0 Z " fill="#815929" transform="translate(50,25)"/>
<path d="M0 0 C0.33 1.32 0.66 2.64 1 4 C-1.64 4 -4.28 4 -7 4 C-7 3.34 -7 2.68 -7 2 C-4.69 1.34 -2.38 0.68 0 0 Z " fill="#F9F9F7" transform="translate(83,52)"/>
<path d="M0 0 C0.99 0 1.98 0 3 0 C3 1.98 3 3.96 3 6 C2.01 6 1.02 6 0 6 C0 4.02 0 2.04 0 0 Z " fill="#3C2512" transform="translate(75,75)"/>
<path d="M0 0 C1.98 0 3.96 0 6 0 C6 0.99 6 1.98 6 3 C4.02 3 2.04 3 0 3 C0 2.01 0 1.02 0 0 Z " fill="#945D28" transform="translate(47,61)"/>
<path d="M0 0 C0 1.65 0 3.3 0 5 C-0.66 5 -1.32 5 -2 5 C-2 4.01 -2 3.02 -2 2 C-4.64 2 -7.28 2 -10 2 C-10 1.67 -10 1.34 -10 1 C-2.25 0 -2.25 0 0 0 Z " fill="#16130A" transform="translate(49,55)"/>
<path d="M0 0 C0.99 0.33 1.98 0.66 3 1 C2.67 1.99 2.34 2.98 2 4 C-0.97 4 -3.94 4 -7 4 C-7 3.67 -7 3.34 -7 3 C-5.02 3 -3.04 3 -1 3 C-0.67 2.01 -0.34 1.02 0 0 Z " fill="#F0D865" transform="translate(58,46)"/>
<path d="M0 0 C1.98 0 3.96 0 6 0 C6 0.99 6 1.98 6 3 C4.02 3 2.04 3 0 3 C0 2.01 0 1.02 0 0 Z " fill="#F9F7F0" transform="translate(72,36)"/>
<path d="M0 0 C0.99 0 1.98 0 3 0 C3 0.99 3 1.98 3 3 C2.01 3 1.02 3 0 3 C0 3.99 0 4.98 0 6 C-1.32 5.67 -2.64 5.34 -4 5 C-3.01 5 -2.02 5 -1 5 C-0.67 3.35 -0.34 1.7 0 0 Z " fill="#704B25" transform="translate(86,26)"/>
</svg>
