<?xml version="1.0" encoding="UTF-8"?>
<svg version="1.1" xmlns="http://www.w3.org/2000/svg" width="1024" height="1024">
<path d="M0 0 C337.92 0 675.84 0 1024 0 C1024 337.92 1024 675.84 1024 1024 C686.08 1024 348.16 1024 0 1024 C0 686.08 0 348.16 0 0 Z " fill="#5899B4" transform="translate(0,0)"/>
<path d="M0 0 C52.8 0 105.6 0 160 0 C160 10.56 160 21.12 160 32 C181.12 32 202.24 32 224 32 C224 42.56 224 53.12 224 64 C255.68 64 287.36 64 320 64 C320 95.68 320 127.36 320 160 C298.88 160 277.76 160 256 160 C256 170.56 256 181.12 256 192 C234.88 192 213.76 192 192 192 C192 181.44 192 170.88 192 160 C202.56 160 213.12 160 224 160 C224 149.44 224 138.88 224 128 C202.88 128 181.76 128 160 128 C160 117.44 160 106.88 160 96 C138.88 96 117.76 96 96 96 C96 85.44 96 74.88 96 64 C64.32 64 32.64 64 0 64 C0 74.56 0 85.12 0 96 C21.12 96 42.24 96 64 96 C64 106.56 64 117.12 64 128 C85.12 128 106.24 128 128 128 C128 170.24 128 212.48 128 256 C149.12 256 170.24 256 192 256 C192 245.44 192 234.88 192 224 C213.12 224 234.24 224 256 224 C256 234.56 256 245.12 256 256 C277.12 256 298.24 256 320 256 C320 266.56 320 277.12 320 288 C288.32 288 256.64 288 224 288 C224 298.56 224 309.12 224 320 C202.88 320 181.76 320 160 320 C160 330.56 160 341.12 160 352 C191.68 352 223.36 352 256 352 C256 341.44 256 330.88 256 320 C277.12 320 298.24 320 320 320 C320 362.24 320 404.48 320 448 C309.44 448 298.88 448 288 448 C288 458.56 288 469.12 288 480 C277.44 480 266.88 480 256 480 C256 490.56 256 501.12 256 512 C234.88 512 213.76 512 192 512 C192 533.12 192 554.24 192 576 C181.44 576 170.88 576 160 576 C160 565.44 160 554.88 160 544 C149.44 544 138.88 544 128 544 C128 565.12 128 586.24 128 608 C106.88 608 85.76 608 64 608 C64 597.44 64 586.88 64 576 C53.44 576 42.88 576 32 576 C32 586.56 32 597.12 32 608 C21.44 608 10.88 608 0 608 C0 618.56 0 629.12 0 640 C-10.56 640 -21.12 640 -32 640 C-32 629.44 -32 618.88 -32 608 C-63.68 608 -95.36 608 -128 608 C-128 597.44 -128 586.88 -128 576 C-149.12 576 -170.24 576 -192 576 C-192 565.44 -192 554.88 -192 544 C-223.68 544 -255.36 544 -288 544 C-288 533.44 -288 522.88 -288 512 C-298.56 512 -309.12 512 -320 512 C-320 459.2 -320 406.4 -320 352 C-309.44 352 -298.88 352 -288 352 C-288 362.56 -288 373.12 -288 384 C-277.44 384 -266.88 384 -256 384 C-256 415.68 -256 447.36 -256 480 C-245.44 480 -234.88 480 -224 480 C-224 469.44 -224 458.88 -224 448 C-213.44 448 -202.88 448 -192 448 C-192 469.12 -192 490.24 -192 512 C-181.44 512 -170.88 512 -160 512 C-160 501.44 -160 490.88 -160 480 C-149.44 480 -138.88 480 -128 480 C-128 469.44 -128 458.88 -128 448 C-117.44 448 -106.88 448 -96 448 C-96 416.32 -96 384.64 -96 352 C-117.12 352 -138.24 352 -160 352 C-160 362.56 -160 373.12 -160 384 C-170.56 384 -181.12 384 -192 384 C-192 362.88 -192 341.76 -192 320 C-149.76 320 -107.52 320 -64 320 C-64 309.44 -64 298.88 -64 288 C-11.2 288 41.6 288 96 288 C96 266.88 96 245.76 96 224 C85.44 224 74.88 224 64 224 C64 213.44 64 202.88 64 192 C42.88 192 21.76 192 0 192 C0 181.44 0 170.88 0 160 C-21.12 160 -42.24 160 -64 160 C-64 149.44 -64 138.88 -64 128 C-85.12 128 -106.24 128 -128 128 C-128 106.88 -128 85.76 -128 64 C-106.88 64 -85.76 64 -64 64 C-64 53.44 -64 42.88 -64 32 C-42.88 32 -21.76 32 0 32 C0 21.44 0 10.88 0 0 Z " fill="#BCA34B" transform="translate(480,192)"/>
<path d="M0 0 C10.56 0 21.12 0 32 0 C32 10.56 32 21.12 32 32 C42.56 32 53.12 32 64 32 C64 53.12 64 74.24 64 96 C53.44 96 42.88 96 32 96 C32 106.56 32 117.12 32 128 C21.44 128 10.88 128 0 128 C0 149.12 0 170.24 0 192 C10.56 192 21.12 192 32 192 C32 181.44 32 170.88 32 160 C42.56 160 53.12 160 64 160 C64 170.56 64 181.12 64 192 C95.68 192 127.36 192 160 192 C160 202.56 160 213.12 160 224 C181.12 224 202.24 224 224 224 C224 234.56 224 245.12 224 256 C245.12 256 266.24 256 288 256 C288 266.56 288 277.12 288 288 C298.56 288 309.12 288 320 288 C320 309.12 320 330.24 320 352 C267.2 352 214.4 352 160 352 C160 362.56 160 373.12 160 384 C117.76 384 75.52 384 32 384 C32 405.12 32 426.24 32 448 C42.56 448 53.12 448 64 448 C64 437.44 64 426.88 64 416 C85.12 416 106.24 416 128 416 C128 447.68 128 479.36 128 512 C117.44 512 106.88 512 96 512 C96 522.56 96 533.12 96 544 C85.44 544 74.88 544 64 544 C64 554.56 64 565.12 64 576 C53.44 576 42.88 576 32 576 C32 554.88 32 533.76 32 512 C21.44 512 10.88 512 0 512 C0 522.56 0 533.12 0 544 C-10.56 544 -21.12 544 -32 544 C-32 512.32 -32 480.64 -32 448 C-42.56 448 -53.12 448 -64 448 C-64 437.44 -64 426.88 -64 416 C-74.56 416 -85.12 416 -96 416 C-96 394.88 -96 373.76 -96 352 C-85.44 352 -74.88 352 -64 352 C-64 362.56 -64 373.12 -64 384 C-53.44 384 -42.88 384 -32 384 C-32 362.88 -32 341.76 -32 320 C-53.12 320 -74.24 320 -96 320 C-96 288.32 -96 256.64 -96 224 C-74.88 224 -53.76 224 -32 224 C-32 192.32 -32 160.64 -32 128 C-42.56 128 -53.12 128 -64 128 C-64 117.44 -64 106.88 -64 96 C-74.56 96 -85.12 96 -96 96 C-96 85.44 -96 74.88 -96 64 C-74.88 64 -53.76 64 -32 64 C-32 53.44 -32 42.88 -32 32 C-21.44 32 -10.88 32 0 32 C0 21.44 0 10.88 0 0 Z " fill="#F6E073" transform="translate(256,128)"/>
<path d="M0 0 C42.24 0 84.48 0 128 0 C128 21.12 128 42.24 128 64 C138.56 64 149.12 64 160 64 C160 42.88 160 21.76 160 0 C170.56 0 181.12 0 192 0 C192 31.68 192 63.36 192 96 C213.12 96 234.24 96 256 96 C256 117.12 256 138.24 256 160 C224.32 160 192.64 160 160 160 C160 191.68 160 223.36 160 256 C107.2 256 54.4 256 0 256 C0 245.44 0 234.88 0 224 C-31.68 224 -63.36 224 -96 224 C-96 213.44 -96 202.88 -96 192 C-106.56 192 -117.12 192 -128 192 C-128 139.2 -128 86.4 -128 32 C-117.44 32 -106.88 32 -96 32 C-96 42.56 -96 53.12 -96 64 C-85.44 64 -74.88 64 -64 64 C-64 95.68 -64 127.36 -64 160 C-53.44 160 -42.88 160 -32 160 C-32 149.44 -32 138.88 -32 128 C-21.44 128 -10.88 128 0 128 C0 149.12 0 170.24 0 192 C10.56 192 21.12 192 32 192 C32 181.44 32 170.88 32 160 C42.56 160 53.12 160 64 160 C64 149.44 64 138.88 64 128 C74.56 128 85.12 128 96 128 C96 96.32 96 64.64 96 32 C74.88 32 53.76 32 32 32 C32 42.56 32 53.12 32 64 C21.44 64 10.88 64 0 64 C0 42.88 0 21.76 0 0 Z " fill="#987328" transform="translate(288,512)"/>
<path d="M0 0 C21.12 0 42.24 0 64 0 C64 10.56 64 21.12 64 32 C85.12 32 106.24 32 128 32 C128 42.56 128 53.12 128 64 C149.12 64 170.24 64 192 64 C192 74.56 192 85.12 192 96 C213.12 96 234.24 96 256 96 C256 106.56 256 117.12 256 128 C213.76 128 171.52 128 128 128 C128 149.12 128 170.24 128 192 C138.56 192 149.12 192 160 192 C160 181.44 160 170.88 160 160 C181.12 160 202.24 160 224 160 C224 191.68 224 223.36 224 256 C213.44 256 202.88 256 192 256 C192 266.56 192 277.12 192 288 C181.44 288 170.88 288 160 288 C160 298.56 160 309.12 160 320 C149.44 320 138.88 320 128 320 C128 298.88 128 277.76 128 256 C117.44 256 106.88 256 96 256 C96 266.56 96 277.12 96 288 C85.44 288 74.88 288 64 288 C64 256.32 64 224.64 64 192 C53.44 192 42.88 192 32 192 C32 181.44 32 170.88 32 160 C21.44 160 10.88 160 0 160 C0 138.88 0 117.76 0 96 C10.56 96 21.12 96 32 96 C32 106.56 32 117.12 32 128 C42.56 128 53.12 128 64 128 C64 106.88 64 85.76 64 64 C42.88 64 21.76 64 0 64 C0 42.88 0 21.76 0 0 Z " fill="#E5CA54" transform="translate(160,384)"/>
<path d="M0 0 C10.56 0 21.12 0 32 0 C32 63.36 32 126.72 32 192 C42.56 192 53.12 192 64 192 C64 181.44 64 170.88 64 160 C74.56 160 85.12 160 96 160 C96 117.76 96 75.52 96 32 C117.12 32 138.24 32 160 32 C160 21.44 160 10.88 160 0 C181.12 0 202.24 0 224 0 C224 42.24 224 84.48 224 128 C213.44 128 202.88 128 192 128 C192 138.56 192 149.12 192 160 C181.44 160 170.88 160 160 160 C160 170.56 160 181.12 160 192 C138.88 192 117.76 192 96 192 C96 213.12 96 234.24 96 256 C85.44 256 74.88 256 64 256 C64 245.44 64 234.88 64 224 C53.44 224 42.88 224 32 224 C32 245.12 32 266.24 32 288 C10.88 288 -10.24 288 -32 288 C-32 277.44 -32 266.88 -32 256 C-42.56 256 -53.12 256 -64 256 C-64 245.44 -64 234.88 -64 224 C-42.88 224 -21.76 224 0 224 C0 150.08 0 76.16 0 0 Z " fill="#2A1B07" transform="translate(576,512)"/>
<path d="M0 0 C52.8 0 105.6 0 160 0 C160 10.56 160 21.12 160 32 C181.12 32 202.24 32 224 32 C224 42.56 224 53.12 224 64 C255.68 64 287.36 64 320 64 C320 95.68 320 127.36 320 160 C298.88 160 277.76 160 256 160 C256 170.56 256 181.12 256 192 C234.88 192 213.76 192 192 192 C192 181.44 192 170.88 192 160 C202.56 160 213.12 160 224 160 C224 149.44 224 138.88 224 128 C202.88 128 181.76 128 160 128 C160 117.44 160 106.88 160 96 C138.88 96 117.76 96 96 96 C96 85.44 96 74.88 96 64 C64.32 64 32.64 64 0 64 C0 42.88 0 21.76 0 0 Z " fill="#7A5127" transform="translate(480,192)"/>
<path d="M0 0 C10.56 0 21.12 0 32 0 C32 73.92 32 147.84 32 224 C10.88 224 -10.24 224 -32 224 C-32 245.12 -32 266.24 -32 288 C-42.56 288 -53.12 288 -64 288 C-64 298.56 -64 309.12 -64 320 C-74.56 320 -85.12 320 -96 320 C-96 309.44 -96 298.88 -96 288 C-127.68 288 -159.36 288 -192 288 C-192 277.44 -192 266.88 -192 256 C-160.32 256 -128.64 256 -96 256 C-96 224.32 -96 192.64 -96 160 C-64.32 160 -32.64 160 0 160 C0 107.2 0 54.4 0 0 Z " fill="#AB9841" transform="translate(544,512)"/>
<path d="M0 0 C10.56 0 21.12 0 32 0 C32 10.56 32 21.12 32 32 C42.56 32 53.12 32 64 32 C64 63.68 64 95.36 64 128 C74.56 128 85.12 128 96 128 C96 117.44 96 106.88 96 96 C106.56 96 117.12 96 128 96 C128 117.12 128 138.24 128 160 C138.56 160 149.12 160 160 160 C160 149.44 160 138.88 160 128 C170.56 128 181.12 128 192 128 C192 159.68 192 191.36 192 224 C170.88 224 149.76 224 128 224 C128 213.44 128 202.88 128 192 C96.32 192 64.64 192 32 192 C32 181.44 32 170.88 32 160 C21.44 160 10.88 160 0 160 C0 107.2 0 54.4 0 0 Z " fill="#D19D30" transform="translate(160,544)"/>
<path d="M0 0 C31.68 0 63.36 0 96 0 C96 10.56 96 21.12 96 32 C117.12 32 138.24 32 160 32 C160 42.56 160 53.12 160 64 C181.12 64 202.24 64 224 64 C224 74.56 224 85.12 224 96 C213.44 96 202.88 96 192 96 C192 106.56 192 117.12 192 128 C213.12 128 234.24 128 256 128 C256 138.56 256 149.12 256 160 C234.88 160 213.76 160 192 160 C192 170.56 192 181.12 192 192 C170.88 192 149.76 192 128 192 C128 149.76 128 107.52 128 64 C106.88 64 85.76 64 64 64 C64 53.44 64 42.88 64 32 C42.88 32 21.76 32 0 32 C0 21.44 0 10.88 0 0 Z " fill="#F4DA58" transform="translate(480,256)"/>
<path d="M0 0 C21.12 0 42.24 0 64 0 C64 52.8 64 105.6 64 160 C32.32 160 0.64 160 -32 160 C-32 117.76 -32 75.52 -32 32 C-21.44 32 -10.88 32 0 32 C0 21.44 0 10.88 0 0 Z " fill="#0F0F28" transform="translate(384,608)"/>
<path d="M0 0 C21.12 0 42.24 0 64 0 C64 42.24 64 84.48 64 128 C53.44 128 42.88 128 32 128 C32 138.56 32 149.12 32 160 C21.44 160 10.88 160 0 160 C0 170.56 0 181.12 0 192 C-10.56 192 -21.12 192 -32 192 C-32 139.2 -32 86.4 -32 32 C-21.44 32 -10.88 32 0 32 C0 21.44 0 10.88 0 0 Z " fill="#2A1B07" transform="translate(736,512)"/>
<path d="M0 0 C42.24 0 84.48 0 128 0 C128 31.68 128 63.36 128 96 C85.76 96 43.52 96 0 96 C0 64.32 0 32.64 0 0 Z " fill="#5899B4" transform="translate(736,352)"/>
<path d="M0 0 C10.56 0 21.12 0 32 0 C32 10.56 32 21.12 32 32 C42.56 32 53.12 32 64 32 C64 53.12 64 74.24 64 96 C53.44 96 42.88 96 32 96 C32 106.56 32 117.12 32 128 C0.32 128 -31.36 128 -64 128 C-64 117.44 -64 106.88 -64 96 C-74.56 96 -85.12 96 -96 96 C-96 85.44 -96 74.88 -96 64 C-74.88 64 -53.76 64 -32 64 C-32 53.44 -32 42.88 -32 32 C-21.44 32 -10.88 32 0 32 C0 21.44 0 10.88 0 0 Z " fill="#5899B4" transform="translate(256,128)"/>
<path d="M0 0 C10.56 0 21.12 0 32 0 C32 10.56 32 21.12 32 32 C42.56 32 53.12 32 64 32 C64 74.24 64 116.48 64 160 C53.44 160 42.88 160 32 160 C32 170.56 32 181.12 32 192 C21.44 192 10.88 192 0 192 C0 128.64 0 65.28 0 0 Z " fill="#AB9841" transform="translate(608,512)"/>
<path d="M0 0 C21.12 0 42.24 0 64 0 C64 10.56 64 21.12 64 32 C85.12 32 106.24 32 128 32 C128 42.56 128 53.12 128 64 C96.32 64 64.64 64 32 64 C32 74.56 32 85.12 32 96 C10.88 96 -10.24 96 -32 96 C-32 85.44 -32 74.88 -32 64 C-42.56 64 -53.12 64 -64 64 C-64 53.44 -64 42.88 -64 32 C-42.88 32 -21.76 32 0 32 C0 21.44 0 10.88 0 0 Z " fill="#AB9841" transform="translate(672,416)"/>
<path d="M0 0 C10.56 0 21.12 0 32 0 C32 21.12 32 42.24 32 64 C42.56 64 53.12 64 64 64 C64 95.68 64 127.36 64 160 C42.88 160 21.76 160 0 160 C0 149.44 0 138.88 0 128 C-21.12 128 -42.24 128 -64 128 C-64 117.44 -64 106.88 -64 96 C-42.88 96 -21.76 96 0 96 C0 64.32 0 32.64 0 0 Z " fill="#F7E27A" transform="translate(224,256)"/>
<path d="M0 0 C10.56 0 21.12 0 32 0 C32 10.56 32 21.12 32 32 C42.56 32 53.12 32 64 32 C64 63.68 64 95.36 64 128 C42.88 128 21.76 128 0 128 C0 85.76 0 43.52 0 0 Z " fill="#0F0F28" transform="translate(160,544)"/>
<path d="M0 0 C52.8 0 105.6 0 160 0 C160 10.56 160 21.12 160 32 C149.44 32 138.88 32 128 32 C128 42.56 128 53.12 128 64 C117.44 64 106.88 64 96 64 C96 53.44 96 42.88 96 32 C64.32 32 32.64 32 0 32 C0 21.44 0 10.88 0 0 Z " fill="#844D0D" transform="translate(352,768)"/>
<path d="M0 0 C42.24 0 84.48 0 128 0 C128 21.12 128 42.24 128 64 C117.44 64 106.88 64 96 64 C96 53.44 96 42.88 96 32 C74.88 32 53.76 32 32 32 C32 42.56 32 53.12 32 64 C21.44 64 10.88 64 0 64 C0 42.88 0 21.76 0 0 Z " fill="#000000" transform="translate(288,512)"/>
<path d="M0 0 C31.68 0 63.36 0 96 0 C96 10.56 96 21.12 96 32 C74.88 32 53.76 32 32 32 C32 42.56 32 53.12 32 64 C0.32 64 -31.36 64 -64 64 C-64 53.44 -64 42.88 -64 32 C-42.88 32 -21.76 32 0 32 C0 21.44 0 10.88 0 0 Z " fill="#FFFFFF" transform="translate(704,480)"/>
<path d="M0 0 C42.24 0 84.48 0 128 0 C128 21.12 128 42.24 128 64 C117.44 64 106.88 64 96 64 C96 53.44 96 42.88 96 32 C74.88 32 53.76 32 32 32 C32 42.56 32 53.12 32 64 C21.44 64 10.88 64 0 64 C0 42.88 0 21.76 0 0 Z " fill="#000000" transform="translate(96,448)"/>
<path d="M0 0 C42.24 0 84.48 0 128 0 C128 10.56 128 21.12 128 32 C106.88 32 85.76 32 64 32 C64 42.56 64 53.12 64 64 C42.88 64 21.76 64 0 64 C0 42.88 0 21.76 0 0 Z " fill="#D1BC57" transform="translate(608,384)"/>
<path d="M0 0 C31.68 0 63.36 0 96 0 C96 21.12 96 42.24 96 64 C74.88 64 53.76 64 32 64 C32 53.44 32 42.88 32 32 C21.44 32 10.88 32 0 32 C0 21.44 0 10.88 0 0 Z " fill="#391F0C" transform="translate(512,736)"/>
<path d="M0 0 C10.56 0 21.12 0 32 0 C32 52.8 32 105.6 32 160 C21.44 160 10.88 160 0 160 C0 107.2 0 54.4 0 0 Z " fill="#2A1B07" transform="translate(672,544)"/>
<path d="M0 0 C10.56 0 21.12 0 32 0 C32 31.68 32 63.36 32 96 C0.32 96 -31.36 96 -64 96 C-64 85.44 -64 74.88 -64 64 C-42.88 64 -21.76 64 0 64 C0 42.88 0 21.76 0 0 Z " fill="#AB9841" transform="translate(448,512)"/>
<path d="M0 0 C21.12 0 42.24 0 64 0 C64 10.56 64 21.12 64 32 C85.12 32 106.24 32 128 32 C128 42.56 128 53.12 128 64 C96.32 64 64.64 64 32 64 C32 53.44 32 42.88 32 32 C21.44 32 10.88 32 0 32 C0 21.44 0 10.88 0 0 Z " fill="#D2B83B" transform="translate(288,448)"/>
<path d="M0 0 C21.12 0 42.24 0 64 0 C64 10.56 64 21.12 64 32 C85.12 32 106.24 32 128 32 C128 42.56 128 53.12 128 64 C96.32 64 64.64 64 32 64 C32 53.44 32 42.88 32 32 C21.44 32 10.88 32 0 32 C0 21.44 0 10.88 0 0 Z " fill="#AB9841" transform="translate(672,416)"/>
<path d="M0 0 C10.56 0 21.12 0 32 0 C32 42.24 32 84.48 32 128 C21.44 128 10.88 128 0 128 C0 106.88 0 85.76 0 64 C-10.56 64 -21.12 64 -32 64 C-32 53.44 -32 42.88 -32 32 C-21.44 32 -10.88 32 0 32 C0 21.44 0 10.88 0 0 Z " fill="#613E1C" transform="translate(576,352)"/>
<path d="M0 0 C31.68 0 63.36 0 96 0 C96 10.56 96 21.12 96 32 C74.88 32 53.76 32 32 32 C32 42.56 32 53.12 32 64 C10.88 64 -10.24 64 -32 64 C-32 53.44 -32 42.88 -32 32 C-21.44 32 -10.88 32 0 32 C0 21.44 0 10.88 0 0 Z " fill="#2A1B07" transform="translate(704,320)"/>
<path d="M0 0 C21.12 0 42.24 0 64 0 C64 10.56 64 21.12 64 32 C53.44 32 42.88 32 32 32 C32 42.56 32 53.12 32 64 C0.32 64 -31.36 64 -64 64 C-64 53.44 -64 42.88 -64 32 C-42.88 32 -21.76 32 0 32 C0 21.44 0 10.88 0 0 Z " fill="#7A5127" transform="translate(544,320)"/>
<path d="M0 0 C31.68 0 63.36 0 96 0 C96 10.56 96 21.12 96 32 C106.56 32 117.12 32 128 32 C128 42.56 128 53.12 128 64 C106.88 64 85.76 64 64 64 C64 53.44 64 42.88 64 32 C42.88 32 21.76 32 0 32 C0 21.44 0 10.88 0 0 Z " fill="#F4DD6A" transform="translate(480,256)"/>
<path d="M0 0 C10.56 0 21.12 0 32 0 C32 10.56 32 21.12 32 32 C42.56 32 53.12 32 64 32 C64 53.12 64 74.24 64 96 C53.44 96 42.88 96 32 96 C32 85.44 32 74.88 32 64 C10.88 64 -10.24 64 -32 64 C-32 53.44 -32 42.88 -32 32 C-21.44 32 -10.88 32 0 32 C0 21.44 0 10.88 0 0 Z " fill="#FFFFFF" transform="translate(256,128)"/>
<path d="M0 0 C10.56 0 21.12 0 32 0 C32 31.68 32 63.36 32 96 C21.44 96 10.88 96 0 96 C0 85.44 0 74.88 0 64 C-10.56 64 -21.12 64 -32 64 C-32 53.44 -32 42.88 -32 32 C-21.44 32 -10.88 32 0 32 C0 21.44 0 10.88 0 0 Z " fill="#391F0C" transform="translate(640,672)"/>
<path d="M0 0 C21.12 0 42.24 0 64 0 C64 10.56 64 21.12 64 32 C74.56 32 85.12 32 96 32 C96 42.56 96 53.12 96 64 C74.88 64 53.76 64 32 64 C32 53.44 32 42.88 32 32 C21.44 32 10.88 32 0 32 C0 21.44 0 10.88 0 0 Z " fill="#985F28" transform="translate(160,672)"/>
<path d="M0 0 C21.12 0 42.24 0 64 0 C64 21.12 64 42.24 64 64 C42.88 64 21.76 64 0 64 C0 42.88 0 21.76 0 0 Z " fill="#DCC937" transform="translate(160,384)"/>
<path d="M0 0 C10.56 0 21.12 0 32 0 C32 10.56 32 21.12 32 32 C42.56 32 53.12 32 64 32 C64 42.56 64 53.12 64 64 C53.44 64 42.88 64 32 64 C32 74.56 32 85.12 32 96 C21.44 96 10.88 96 0 96 C0 64.32 0 32.64 0 0 Z " fill="#F4DA58" transform="translate(288,288)"/>
<path d="M0 0 C31.68 0 63.36 0 96 0 C96 10.56 96 21.12 96 32 C64.32 32 32.64 32 0 32 C0 21.44 0 10.88 0 0 Z " fill="#985F28" transform="translate(352,768)"/>
<path d="M0 0 C10.56 0 21.12 0 32 0 C32 31.68 32 63.36 32 96 C21.44 96 10.88 96 0 96 C0 64.32 0 32.64 0 0 Z " fill="#AB9841" transform="translate(704,544)"/>
<path d="M0 0 C10.56 0 21.12 0 32 0 C32 10.56 32 21.12 32 32 C42.56 32 53.12 32 64 32 C64 42.56 64 53.12 64 64 C42.88 64 21.76 64 0 64 C0 42.88 0 21.76 0 0 Z " fill="#985F28" transform="translate(160,480)"/>
<path d="M0 0 C10.56 0 21.12 0 32 0 C32 31.68 32 63.36 32 96 C21.44 96 10.88 96 0 96 C0 64.32 0 32.64 0 0 Z " fill="#E5CA54" transform="translate(416,480)"/>
<path d="M0 0 C10.56 0 21.12 0 32 0 C32 31.68 32 63.36 32 96 C21.44 96 10.88 96 0 96 C0 64.32 0 32.64 0 0 Z " fill="#FFFFFF" transform="translate(832,352)"/>
<path d="M0 0 C10.56 0 21.12 0 32 0 C32 21.12 32 42.24 32 64 C10.88 64 -10.24 64 -32 64 C-32 53.44 -32 42.88 -32 32 C-21.44 32 -10.88 32 0 32 C0 21.44 0 10.88 0 0 Z " fill="#613E1C" transform="translate(768,256)"/>
<path d="M0 0 C10.56 0 21.12 0 32 0 C32 10.56 32 21.12 32 32 C42.56 32 53.12 32 64 32 C64 42.56 64 53.12 64 64 C42.88 64 21.76 64 0 64 C0 42.88 0 21.76 0 0 Z " fill="#7A5127" transform="translate(352,256)"/>
<path d="M0 0 C10.56 0 21.12 0 32 0 C32 31.68 32 63.36 32 96 C21.44 96 10.88 96 0 96 C0 64.32 0 32.64 0 0 Z " fill="#FFFFFF" transform="translate(320,224)"/>
<path d="M0 0 C10.56 0 21.12 0 32 0 C32 10.56 32 21.12 32 32 C42.56 32 53.12 32 64 32 C64 42.56 64 53.12 64 64 C42.88 64 21.76 64 0 64 C0 42.88 0 21.76 0 0 Z " fill="#613E1C" transform="translate(480,192)"/>
<path d="M0 0 C21.12 0 42.24 0 64 0 C64 21.12 64 42.24 64 64 C53.44 64 42.88 64 32 64 C32 53.44 32 42.88 32 32 C21.44 32 10.88 32 0 32 C0 21.44 0 10.88 0 0 Z " fill="#FFFFFF" transform="translate(160,192)"/>
<path d="M0 0 C21.12 0 42.24 0 64 0 C64 10.56 64 21.12 64 32 C53.44 32 42.88 32 32 32 C32 42.56 32 53.12 32 64 C21.44 64 10.88 64 0 64 C0 42.88 0 21.76 0 0 Z " fill="#FFFFFF" transform="translate(128,128)"/>
<path d="M0 0 C21.12 0 42.24 0 64 0 C64 10.56 64 21.12 64 32 C42.88 32 21.76 32 0 32 C0 21.44 0 10.88 0 0 Z " fill="#844D0D" transform="translate(512,736)"/>
<path d="M0 0 C10.56 0 21.12 0 32 0 C32 21.12 32 42.24 32 64 C21.44 64 10.88 64 0 64 C0 42.88 0 21.76 0 0 Z " fill="#391F0C" transform="translate(704,640)"/>
<path d="M0 0 C10.56 0 21.12 0 32 0 C32 21.12 32 42.24 32 64 C21.44 64 10.88 64 0 64 C0 42.88 0 21.76 0 0 Z " fill="#844D0D" transform="translate(448,608)"/>
<path d="M0 0 C21.12 0 42.24 0 64 0 C64 10.56 64 21.12 64 32 C42.88 32 21.76 32 0 32 C0 21.44 0 10.88 0 0 Z " fill="#985F28" transform="translate(384,576)"/>
<path d="M0 0 C21.12 0 42.24 0 64 0 C64 10.56 64 21.12 64 32 C42.88 32 21.76 32 0 32 C0 21.44 0 10.88 0 0 Z " fill="#FFFFFF" transform="translate(576,480)"/>
<path d="M0 0 C21.12 0 42.24 0 64 0 C64 10.56 64 21.12 64 32 C42.88 32 21.76 32 0 32 C0 21.44 0 10.88 0 0 Z " fill="#2A1B07" transform="translate(736,448)"/>
<path d="M0 0 C21.12 0 42.24 0 64 0 C64 10.56 64 21.12 64 32 C42.88 32 21.76 32 0 32 C0 21.44 0 10.88 0 0 Z " fill="#FFFFFF" transform="translate(512,448)"/>
<path d="M0 0 C10.56 0 21.12 0 32 0 C32 21.12 32 42.24 32 64 C21.44 64 10.88 64 0 64 C0 42.88 0 21.76 0 0 Z " fill="#DCC937" transform="translate(224,448)"/>
<path d="M0 0 C21.12 0 42.24 0 64 0 C64 10.56 64 21.12 64 32 C42.88 32 21.76 32 0 32 C0 21.44 0 10.88 0 0 Z " fill="#FFFFFF" transform="translate(736,416)"/>
<path d="M0 0 C10.56 0 21.12 0 32 0 C32 21.12 32 42.24 32 64 C21.44 64 10.88 64 0 64 C0 42.88 0 21.76 0 0 Z " fill="#2A1B07" transform="translate(576,416)"/>
<path d="M0 0 C21.12 0 42.24 0 64 0 C64 10.56 64 21.12 64 32 C42.88 32 21.76 32 0 32 C0 21.44 0 10.88 0 0 Z " fill="#2A1B07" transform="translate(736,384)"/>
<path d="M0 0 C21.12 0 42.24 0 64 0 C64 10.56 64 21.12 64 32 C42.88 32 21.76 32 0 32 C0 21.44 0 10.88 0 0 Z " fill="#FFFFFF" transform="translate(672,384)"/>
<path d="M0 0 C21.12 0 42.24 0 64 0 C64 10.56 64 21.12 64 32 C42.88 32 21.76 32 0 32 C0 21.44 0 10.88 0 0 Z " fill="#FFFFFF" transform="translate(736,352)"/>
<path d="M0 0 C21.12 0 42.24 0 64 0 C64 10.56 64 21.12 64 32 C42.88 32 21.76 32 0 32 C0 21.44 0 10.88 0 0 Z " fill="#AB9841" transform="translate(672,352)"/>
<path d="M0 0 C21.12 0 42.24 0 64 0 C64 10.56 64 21.12 64 32 C42.88 32 21.76 32 0 32 C0 21.44 0 10.88 0 0 Z " fill="#FFFFFF" transform="translate(608,352)"/>
<path d="M0 0 C21.12 0 42.24 0 64 0 C64 10.56 64 21.12 64 32 C42.88 32 21.76 32 0 32 C0 21.44 0 10.88 0 0 Z " fill="#7A5127" transform="translate(480,352)"/>
<path d="M0 0 C21.12 0 42.24 0 64 0 C64 10.56 64 21.12 64 32 C42.88 32 21.76 32 0 32 C0 21.44 0 10.88 0 0 Z " fill="#F4DA58" transform="translate(160,352)"/>
<path d="M0 0 C21.12 0 42.24 0 64 0 C64 10.56 64 21.12 64 32 C42.88 32 21.76 32 0 32 C0 21.44 0 10.88 0 0 Z " fill="#F6E48F" transform="translate(480,320)"/>
<path d="M0 0 C21.12 0 42.24 0 64 0 C64 10.56 64 21.12 64 32 C42.88 32 21.76 32 0 32 C0 21.44 0 10.88 0 0 Z " fill="#7A5127" transform="translate(416,320)"/>
<path d="M0 0 C21.12 0 42.24 0 64 0 C64 10.56 64 21.12 64 32 C42.88 32 21.76 32 0 32 C0 21.44 0 10.88 0 0 Z " fill="#613E1C" transform="translate(480,288)"/>
<path d="M0 0 C21.12 0 42.24 0 64 0 C64 10.56 64 21.12 64 32 C42.88 32 21.76 32 0 32 C0 21.44 0 10.88 0 0 Z " fill="#F4DA58" transform="translate(416,288)"/>
<path d="M0 0 C10.56 0 21.12 0 32 0 C32 21.12 32 42.24 32 64 C21.44 64 10.88 64 0 64 C0 42.88 0 21.76 0 0 Z " fill="#FFFFFF" transform="translate(224,256)"/>
<path d="M0 0 C21.12 0 42.24 0 64 0 C64 10.56 64 21.12 64 32 C42.88 32 21.76 32 0 32 C0 21.44 0 10.88 0 0 Z " fill="#FFFFFF" transform="translate(192,96)"/>
<path d="M0 0 C10.56 0 21.12 0 32 0 C32 10.56 32 21.12 32 32 C21.44 32 10.88 32 0 32 C0 21.44 0 10.88 0 0 Z " fill="#391F0C" transform="translate(448,800)"/>
<path d="M0 0 C10.56 0 21.12 0 32 0 C32 10.56 32 21.12 32 32 C21.44 32 10.88 32 0 32 C0 21.44 0 10.88 0 0 Z " fill="#985F28" transform="translate(320,736)"/>
<path d="M0 0 C10.56 0 21.12 0 32 0 C32 10.56 32 21.12 32 32 C21.44 32 10.88 32 0 32 C0 21.44 0 10.88 0 0 Z " fill="#844D0D" transform="translate(608,704)"/>
<path d="M0 0 C10.56 0 21.12 0 32 0 C32 10.56 32 21.12 32 32 C21.44 32 10.88 32 0 32 C0 21.44 0 10.88 0 0 Z " fill="#985F28" transform="translate(224,704)"/>
<path d="M0 0 C10.56 0 21.12 0 32 0 C32 10.56 32 21.12 32 32 C21.44 32 10.88 32 0 32 C0 21.44 0 10.88 0 0 Z " fill="#391F0C" transform="translate(192,704)"/>
<path d="M0 0 C10.56 0 21.12 0 32 0 C32 10.56 32 21.12 32 32 C21.44 32 10.88 32 0 32 C0 21.44 0 10.88 0 0 Z " fill="#844D0D" transform="translate(640,672)"/>
<path d="M0 0 C10.56 0 21.12 0 32 0 C32 10.56 32 21.12 32 32 C21.44 32 10.88 32 0 32 C0 21.44 0 10.88 0 0 Z " fill="#844D0D" transform="translate(704,640)"/>
<path d="M0 0 C10.56 0 21.12 0 32 0 C32 10.56 32 21.12 32 32 C21.44 32 10.88 32 0 32 C0 21.44 0 10.88 0 0 Z " fill="#A6DFF6" transform="translate(352,608)"/>
<path d="M0 0 C10.56 0 21.12 0 32 0 C32 10.56 32 21.12 32 32 C21.44 32 10.88 32 0 32 C0 21.44 0 10.88 0 0 Z " fill="#A6DFF6" transform="translate(192,544)"/>
<path d="M0 0 C10.56 0 21.12 0 32 0 C32 10.56 32 21.12 32 32 C21.44 32 10.88 32 0 32 C0 21.44 0 10.88 0 0 Z " fill="#2A1B07" transform="translate(672,480)"/>
<path d="M0 0 C10.56 0 21.12 0 32 0 C32 10.56 32 21.12 32 32 C21.44 32 10.88 32 0 32 C0 21.44 0 10.88 0 0 Z " fill="#AB9841" transform="translate(384,480)"/>
<path d="M0 0 C10.56 0 21.12 0 32 0 C32 10.56 32 21.12 32 32 C21.44 32 10.88 32 0 32 C0 21.44 0 10.88 0 0 Z " fill="#C1AF5C" transform="translate(160,480)"/>
<path d="M0 0 C10.56 0 21.12 0 32 0 C32 10.56 32 21.12 32 32 C21.44 32 10.88 32 0 32 C0 21.44 0 10.88 0 0 Z " fill="#FFFFFF" transform="translate(800,448)"/>
<path d="M0 0 C10.56 0 21.12 0 32 0 C32 10.56 32 21.12 32 32 C21.44 32 10.88 32 0 32 C0 21.44 0 10.88 0 0 Z " fill="#FFFFFF" transform="translate(672,448)"/>
<path d="M0 0 C10.56 0 21.12 0 32 0 C32 10.56 32 21.12 32 32 C21.44 32 10.88 32 0 32 C0 21.44 0 10.88 0 0 Z " fill="#2A1B07" transform="translate(672,416)"/>
<path d="M0 0 C10.56 0 21.12 0 32 0 C32 10.56 32 21.12 32 32 C21.44 32 10.88 32 0 32 C0 21.44 0 10.88 0 0 Z " fill="#FFFFFF" transform="translate(640,416)"/>
<path d="M0 0 C10.56 0 21.12 0 32 0 C32 10.56 32 21.12 32 32 C21.44 32 10.88 32 0 32 C0 21.44 0 10.88 0 0 Z " fill="#F4DA58" transform="translate(544,416)"/>
<path d="M0 0 C10.56 0 21.12 0 32 0 C32 10.56 32 21.12 32 32 C21.44 32 10.88 32 0 32 C0 21.44 0 10.88 0 0 Z " fill="#7A5127" transform="translate(512,416)"/>
<path d="M0 0 C10.56 0 21.12 0 32 0 C32 10.56 32 21.12 32 32 C21.44 32 10.88 32 0 32 C0 21.44 0 10.88 0 0 Z " fill="#F4DA58" transform="translate(352,416)"/>
<path d="M0 0 C10.56 0 21.12 0 32 0 C32 10.56 32 21.12 32 32 C21.44 32 10.88 32 0 32 C0 21.44 0 10.88 0 0 Z " fill="#AB9841" transform="translate(640,384)"/>
<path d="M0 0 C10.56 0 21.12 0 32 0 C32 10.56 32 21.12 32 32 C21.44 32 10.88 32 0 32 C0 21.44 0 10.88 0 0 Z " fill="#F4DA58" transform="translate(608,384)"/>
<path d="M0 0 C10.56 0 21.12 0 32 0 C32 10.56 32 21.12 32 32 C21.44 32 10.88 32 0 32 C0 21.44 0 10.88 0 0 Z " fill="#F4DA58" transform="translate(288,384)"/>
<path d="M0 0 C10.56 0 21.12 0 32 0 C32 10.56 32 21.12 32 32 C21.44 32 10.88 32 0 32 C0 21.44 0 10.88 0 0 Z " fill="#2A1B07" transform="translate(672,352)"/>
<path d="M0 0 C10.56 0 21.12 0 32 0 C32 10.56 32 21.12 32 32 C21.44 32 10.88 32 0 32 C0 21.44 0 10.88 0 0 Z " fill="#F4DA58" transform="translate(544,352)"/>
<path d="M0 0 C10.56 0 21.12 0 32 0 C32 10.56 32 21.12 32 32 C21.44 32 10.88 32 0 32 C0 21.44 0 10.88 0 0 Z " fill="#7A5127" transform="translate(288,352)"/>
<path d="M0 0 C10.56 0 21.12 0 32 0 C32 10.56 32 21.12 32 32 C21.44 32 10.88 32 0 32 C0 21.44 0 10.88 0 0 Z " fill="#F4DA58" transform="translate(256,352)"/>
<path d="M0 0 C10.56 0 21.12 0 32 0 C32 10.56 32 21.12 32 32 C21.44 32 10.88 32 0 32 C0 21.44 0 10.88 0 0 Z " fill="#F7E27A" transform="translate(160,352)"/>
<path d="M0 0 C10.56 0 21.12 0 32 0 C32 10.56 32 21.12 32 32 C21.44 32 10.88 32 0 32 C0 21.44 0 10.88 0 0 Z " fill="#FFFFFF" transform="translate(800,320)"/>
<path d="M0 0 C10.56 0 21.12 0 32 0 C32 10.56 32 21.12 32 32 C21.44 32 10.88 32 0 32 C0 21.44 0 10.88 0 0 Z " fill="#7A5127" transform="translate(320,320)"/>
<path d="M0 0 C10.56 0 21.12 0 32 0 C32 10.56 32 21.12 32 32 C21.44 32 10.88 32 0 32 C0 21.44 0 10.88 0 0 Z " fill="#FFFFFF" transform="translate(256,320)"/>
<path d="M0 0 C10.56 0 21.12 0 32 0 C32 10.56 32 21.12 32 32 C21.44 32 10.88 32 0 32 C0 21.44 0 10.88 0 0 Z " fill="#F4DA58" transform="translate(224,320)"/>
<path d="M0 0 C10.56 0 21.12 0 32 0 C32 10.56 32 21.12 32 32 C21.44 32 10.88 32 0 32 C0 21.44 0 10.88 0 0 Z " fill="#613E1C" transform="translate(640,288)"/>
<path d="M0 0 C10.56 0 21.12 0 32 0 C32 10.56 32 21.12 32 32 C21.44 32 10.88 32 0 32 C0 21.44 0 10.88 0 0 Z " fill="#F6E48F" transform="translate(576,288)"/>
<path d="M0 0 C10.56 0 21.12 0 32 0 C32 10.56 32 21.12 32 32 C21.44 32 10.88 32 0 32 C0 21.44 0 10.88 0 0 Z " fill="#7A5127" transform="translate(480,288)"/>
<path d="M0 0 C10.56 0 21.12 0 32 0 C32 10.56 32 21.12 32 32 C21.44 32 10.88 32 0 32 C0 21.44 0 10.88 0 0 Z " fill="#613E1C" transform="translate(608,256)"/>
<path d="M0 0 C10.56 0 21.12 0 32 0 C32 10.56 32 21.12 32 32 C21.44 32 10.88 32 0 32 C0 21.44 0 10.88 0 0 Z " fill="#F4DA58" transform="translate(480,256)"/>
<path d="M0 0 C10.56 0 21.12 0 32 0 C32 10.56 32 21.12 32 32 C21.44 32 10.88 32 0 32 C0 21.44 0 10.88 0 0 Z " fill="#F4DA58" transform="translate(384,256)"/>
<path d="M0 0 C10.56 0 21.12 0 32 0 C32 10.56 32 21.12 32 32 C21.44 32 10.88 32 0 32 C0 21.44 0 10.88 0 0 Z " fill="#F4DA58" transform="translate(448,224)"/>
<path d="M0 0 C10.56 0 21.12 0 32 0 C32 10.56 32 21.12 32 32 C21.44 32 10.88 32 0 32 C0 21.44 0 10.88 0 0 Z " fill="#FFFFFF" transform="translate(256,224)"/>
</svg>
